<svg xmlns="http://www.w3.org/2000/svg" xmlns:xlink="http://www.w3.org/1999/xlink" contentStyleType="text/css" data-diagram-type="DESCRIPTION" height="1326px" preserveAspectRatio="none" style="width:811px;height:1326px;background:#FFFFFF;" version="1.1" viewBox="0 0 811 1326" width="811px" zoomAndPan="magnify"><title>&#39640;&#26657;&#23487;&#33293;&#31649;&#29702;&#31995;&#32479; - &#24635;&#20307;&#26550;&#26500;&#22270;&#65288;Spring Boot + Vue&#65289;</title><defs/><g><g class="title" data-source-line="1"><text fill="#000000" font-family="Microsoft YaHei" font-size="14" font-weight="bold" lengthAdjust="spacing" textLength="354.8125" x="221.1714" y="24.8135">&#39640;&#26657;&#23487;&#33293;&#31649;&#29702;&#31995;&#32479; - &#24635;&#20307;&#26550;&#26500;&#22270;&#65288;Spring Boot + Vue&#65289;</text></g><!--cluster client--><g class="cluster" data-entity="client" data-source-line="11" data-uid="ent0002" id="cluster_client"><rect fill="#F9FAFB" height="110" rx="2.5" ry="2.5" style="stroke:#374151;stroke-width:1;" width="128" x="50" y="305.4775"/><text fill="#000000" font-family="Microsoft YaHei" font-size="14" font-weight="bold" lengthAdjust="spacing" textLength="42" x="93" y="322.291">&#23458;&#25143;&#31471;</text></g><!--cluster fe--><g class="cluster" data-entity="fe" data-source-line="16" data-uid="ent0004" id="cluster_fe"><rect fill="#EEF2FF" height="378" rx="2.5" ry="2.5" style="stroke:#374151;stroke-width:1;" width="311" x="209" y="46.4775"/><text fill="#000000" font-family="Microsoft YaHei" font-size="14" font-weight="bold" lengthAdjust="spacing" textLength="205.584" x="261.708" y="63.291">&#21069;&#31471;&#65288;Vue 3 + Element Plus&#65289;</text></g><!--cluster be--><g class="cluster" data-entity="be" data-source-line="24" data-uid="ent0009" id="cluster_be"><rect fill="#ECFDF5" height="500" rx="2.5" ry="2.5" style="stroke:#374151;stroke-width:1;" width="613" x="11" y="653.4775"/><text fill="#000000" font-family="Microsoft YaHei" font-size="14" font-weight="bold" lengthAdjust="spacing" textLength="178.2061" x="228.397" y="670.291">&#21518;&#31471;&#65288;Spring Boot 2.6.3&#65289;</text></g><!--cluster ingress--><g class="cluster" data-entity="ingress" data-source-line="37" data-uid="ent0017" id="cluster_ingress"><rect fill="#F3F4F6" height="110" rx="2.5" ry="2.5" style="stroke:#374151;stroke-width:1;" width="403" x="7" y="492.4775"/><text fill="#000000" font-family="Microsoft YaHei" font-size="14" font-weight="bold" lengthAdjust="spacing" textLength="90.6172" x="163.1914" y="509.291">&#24320;&#21457;/&#37096;&#32626;&#20837;&#21475;</text></g><!--entity browser--><g class="entity" data-entity="browser" data-source-line="12" data-uid="ent0003" id="entity_browser"><rect fill="#F1F1F1" height="56.9551" rx="2.5" ry="2.5" style="stroke:#181818;stroke-width:0.5;" width="95.2637" x="66.5" y="342.4775"/><text fill="#000000" font-family="Microsoft YaHei" font-size="14" lengthAdjust="spacing" textLength="42" x="76.5" y="367.291">&#27983;&#35272;&#22120;</text><text fill="#000000" font-family="Microsoft YaHei" font-size="14" lengthAdjust="spacing" textLength="75.2637" x="76.5" y="385.7686">(PC/&#31227;&#21160;&#31471;)</text></g><!--entity spa--><g class="entity" data-entity="spa" data-source-line="17" data-uid="ent0005" id="entity_spa"><rect fill="#F1F1F1" height="56.9551" rx="2.5" ry="2.5" style="stroke:#181818;stroke-width:0.5;" width="76.6768" x="416.5" y="83.4775"/><text fill="#000000" font-family="Microsoft YaHei" font-size="14" lengthAdjust="spacing" textLength="56.6768" x="426.5" y="108.291">Vue SPA</text><text fill="#000000" font-family="Microsoft YaHei" font-size="14" lengthAdjust="spacing" textLength="53.7988" x="426.5" y="126.7686">(vue-cli)</text></g><!--entity axios--><g class="entity" data-entity="axios" data-source-line="18" data-uid="ent0006" id="entity_axios"><rect fill="#F1F1F1" height="75.4326" rx="2.5" ry="2.5" style="stroke:#181818;stroke-width:0.5;" width="166.6377" x="225.5" y="333.4775"/><text fill="#000000" font-family="Microsoft YaHei" font-size="14" lengthAdjust="spacing" textLength="96.1953" x="235.5" y="358.291">Axios &#35831;&#27714;&#23553;&#35013;</text><text fill="#000000" font-family="Microsoft YaHei" font-size="14" lengthAdjust="spacing" textLength="94.6504" x="235.5" y="376.7686">baseURL=/api</text><text fill="#000000" font-family="Microsoft YaHei" font-size="14" lengthAdjust="spacing" textLength="146.6377" x="235.5" y="395.2461">token: sessionStorage</text></g><!--entity views--><g class="entity" data-entity="views" data-source-line="19" data-uid="ent0007" id="entity_views"><rect fill="#F1F1F1" height="56.9551" rx="2.5" ry="2.5" style="stroke:#181818;stroke-width:0.5;" width="116.5986" x="386.5" y="201.4775"/><text fill="#000000" font-family="Microsoft YaHei" font-size="14" lengthAdjust="spacing" textLength="61.9814" x="396.5" y="226.291">&#36335;&#30001;/&#39029;&#38754;</text><text fill="#000000" font-family="Microsoft YaHei" font-size="14" lengthAdjust="spacing" textLength="96.5986" x="396.5" y="244.7686">views + router</text></g><!--entity vuex--><g class="entity" data-entity="vuex" data-source-line="20" data-uid="ent0008" id="entity_vuex"><rect fill="#F1F1F1" height="56.9551" rx="2.5" ry="2.5" style="stroke:#181818;stroke-width:0.5;" width="76" x="428" y="342.4775"/><text fill="#000000" font-family="Microsoft YaHei" font-size="14" lengthAdjust="spacing" textLength="56" x="438" y="367.291">&#29366;&#24577;&#31649;&#29702;</text><text fill="#000000" font-family="Microsoft YaHei" font-size="14" lengthAdjust="spacing" textLength="33.1338" x="438" y="385.7686">Vuex</text></g><!--entity ctrl--><g class="entity" data-entity="ctrl" data-source-line="25" data-uid="ent0010" id="entity_ctrl"><rect fill="#F1F1F1" height="93.9102" rx="2.5" ry="2.5" style="stroke:#181818;stroke-width:0.5;" width="209.2051" x="212.5" y="690.4775"/><text fill="#000000" font-family="Microsoft YaHei" font-size="14" lengthAdjust="spacing" textLength="104.1797" x="222.5" y="715.291">REST Controller</text><text fill="#000000" font-family="Microsoft YaHei" font-size="14" lengthAdjust="spacing" textLength="189.2051" x="222.5" y="733.7686">/ stu /admin /dormManager</text><text fill="#000000" font-family="Microsoft YaHei" font-size="14" lengthAdjust="spacing" textLength="159.209" x="222.5" y="752.2461">/room /building /notice</text><text fill="#000000" font-family="Microsoft YaHei" font-size="14" lengthAdjust="spacing" textLength="186.8262" x="222.5" y="770.7236">/repair /visitor /adjustRoom</text></g><!--entity session--><g class="entity" data-entity="session" data-source-line="26" data-uid="ent0011" id="entity_session"><rect fill="#F1F1F1" height="56.9551" rx="2.5" ry="2.5" style="stroke:#181818;stroke-width:0.5;" width="195.3623" x="27.5" y="907.9775"/><text fill="#000000" font-family="Microsoft YaHei" font-size="14" lengthAdjust="spacing" textLength="82.3799" x="37.5" y="932.791">Session &#20250;&#35805;</text><text fill="#000000" font-family="Microsoft YaHei" font-size="14" lengthAdjust="spacing" textLength="175.3623" x="37.5" y="951.2686">HttpSession: User/Identity</text></g><!--entity svc--><g class="entity" data-entity="svc" data-source-line="27" data-uid="ent0012" id="entity_svc"><rect fill="#F1F1F1" height="56.9551" rx="2.5" ry="2.5" style="stroke:#181818;stroke-width:0.5;" width="119.333" x="257.5" y="907.9775"/><text fill="#000000" font-family="Microsoft YaHei" font-size="14" lengthAdjust="spacing" textLength="93.5498" x="267.5" y="932.791">Service &#19994;&#21153;&#23618;</text><text fill="#000000" font-family="Microsoft YaHei" font-size="14" lengthAdjust="spacing" textLength="99.333" x="267.5" y="951.2686">(&#26381;&#21153;&#25509;&#21475;/&#23454;&#29616;)</text></g><!--entity mybatis--><g class="entity" data-entity="mybatis" data-source-line="28" data-uid="ent0013" id="entity_mybatis"><rect fill="#F1F1F1" height="56.9551" rx="2.5" ry="2.5" style="stroke:#181818;stroke-width:0.5;" width="120.167" x="257" y="1080.4775"/><text fill="#000000" font-family="Microsoft YaHei" font-size="14" lengthAdjust="spacing" textLength="100.167" x="267" y="1105.291">MyBatis(+Plus)</text><text fill="#000000" font-family="Microsoft YaHei" font-size="14" lengthAdjust="spacing" textLength="85.2441" x="267" y="1123.7686">Mapper/SQL</text></g><!--entity fileSvc--><g class="entity" data-entity="fileSvc" data-source-line="29" data-uid="ent0014" id="entity_fileSvc"><rect fill="#F1F1F1" height="112.3877" rx="2.5" ry="2.5" style="stroke:#181818;stroke-width:0.5;" width="196.2305" x="412" y="880.4775"/><text fill="#000000" font-family="Microsoft YaHei" font-size="14" lengthAdjust="spacing" textLength="56" x="422" y="905.291">&#25991;&#20214;&#26381;&#21153;</text><text fill="#000000" font-family="Microsoft YaHei" font-size="14" lengthAdjust="spacing" textLength="85.5791" x="422" y="923.7686">/files/upload</text><text fill="#000000" font-family="Microsoft YaHei" font-size="14" lengthAdjust="spacing" textLength="176.2305" x="422" y="942.2461">/files/initAvatar/{filename}</text><text fill="#000000" font-family="Microsoft YaHei" font-size="14" lengthAdjust="spacing" textLength="128.9395" x="422" y="960.7236">&#20889;&#20837; resources/files</text><text fill="#000000" font-family="Microsoft YaHei" font-size="14" lengthAdjust="spacing" textLength="107.5088" x="422" y="979.2012">Base64 &#36820;&#22238;&#22836;&#20687;</text></g><!--entity web--><g class="entity" data-entity="web" data-source-line="38" data-uid="ent0018" id="entity_web"><rect fill="#F1F1F1" height="38.4775" rx="2.5" ry="2.5" style="stroke:#181818;stroke-width:0.5;" width="182.0869" x="23" y="538.9775"/><text fill="#000000" font-family="Microsoft YaHei" font-size="14" lengthAdjust="spacing" textLength="162.0869" x="33" y="563.791">&#21069;&#31471; DevServer/&#38745;&#24577;&#31449;&#28857;</text></g><!--entity proxy--><g class="entity" data-entity="proxy" data-source-line="39" data-uid="ent0019" id="entity_proxy"><rect fill="#F1F1F1" height="56.9551" rx="2.5" ry="2.5" style="stroke:#181818;stroke-width:0.5;" width="153.4648" x="240.5" y="529.4775"/><text fill="#000000" font-family="Microsoft YaHei" font-size="14" lengthAdjust="spacing" textLength="56" x="250.5" y="554.291">&#21453;&#21521;&#20195;&#29702;</text><text fill="#000000" font-family="Microsoft YaHei" font-size="14" lengthAdjust="spacing" textLength="133.4648" x="250.5" y="572.7686">&#23558; /api -&gt; &#21518;&#31471;:9090</text></g><!--entity db--><g class="entity" data-entity="db" data-source-line="33" data-uid="ent0015" id="entity_db"><path d="M236,1235.4775 C236,1225.4775 317.0049,1225.4775 317.0049,1225.4775 C317.0049,1225.4775 398.0098,1225.4775 398.0098,1235.4775 L398.0098,1299.9102 C398.0098,1309.9102 317.0049,1309.9102 317.0049,1309.9102 C317.0049,1309.9102 236,1309.9102 236,1299.9102 L236,1235.4775" fill="#FFFBEB" style="stroke:#181818;stroke-width:0.5;"/><path d="M236,1235.4775 C236,1245.4775 317.0049,1245.4775 317.0049,1245.4775 C317.0049,1245.4775 398.0098,1245.4775 398.0098,1235.4775" fill="none" style="stroke:#181818;stroke-width:0.5;"/><text fill="#000000" font-family="Microsoft YaHei" font-size="14" lengthAdjust="spacing" textLength="47.7627" x="246" y="1264.291">MySQL</text><text fill="#000000" font-family="Microsoft YaHei" font-size="14" lengthAdjust="spacing" textLength="142.0098" x="246" y="1282.7686">(dormitory_manager)</text><text fill="#000000" font-family="Microsoft YaHei" font-size="14" lengthAdjust="spacing" textLength="96.5371" x="246" y="1301.2461">localhost:3306</text></g><!--entity fileStore--><g class="entity" data-entity="fileStore" data-source-line="34" data-uid="ent0016" id="entity_fileStore"><path d="M642.5,1071.4775 L683.5,1071.4775 A3.75,3.75 0 0 1 686,1073.9775 L693,1092.4775 L801.6553,1092.4775 A2.5,2.5 0 0 1 804.1553,1094.9775 L804.1553,1143.9326 A2.5,2.5 0 0 1 801.6553,1146.4326 L642.5,1146.4326 A2.5,2.5 0 0 1 640,1143.9326 L640,1073.9775 A2.5,2.5 0 0 1 642.5,1071.4775" fill="#FFF7ED" style="stroke:#181818;stroke-width:0.5;"/><line style="stroke:#181818;stroke-width:0.5;" x1="640" x2="693" y1="1092.4775" y2="1092.4775"/><text fill="#000000" font-family="Microsoft YaHei" font-size="14" lengthAdjust="spacing" textLength="84" x="650" y="1114.291">&#26412;&#22320;&#25991;&#20214;&#23384;&#20648;</text><text fill="#000000" font-family="Microsoft YaHei" font-size="14" lengthAdjust="spacing" textLength="134.1553" x="650" y="1132.7686">resources/files/*.jpg</text></g><g class="entity" data-entity="GMN33" data-source-line="61" data-uid="ent0034" id="entity_GMN33"><path d="M428.5,527.4775 L428.5,553.9775 L393.93,557.9775 L428.5,561.9775 L428.5,588.9507 A0,0 0 0 0 428.5,588.9507 L663.0923,588.9507 A0,0 0 0 0 663.0923,588.9507 L663.0923,537.4775 L653.0923,527.4775 L428.5,527.4775 A0,0 0 0 0 428.5,527.4775" fill="#FEFFDD" style="stroke:#181818;stroke-width:0.5;"/><path d="M653.0923,527.4775 L653.0923,537.4775 L663.0923,537.4775 L653.0923,527.4775" fill="#FEFFDD" style="stroke:#181818;stroke-width:0.5;"/><text fill="#000000" font-family="Microsoft YaHei" font-size="13" lengthAdjust="spacing" textLength="129.4033" x="434.5" y="546.2329">&#21069;&#31471; `baseURL: '/api'`</text><text fill="#000000" font-family="Microsoft YaHei" font-size="13" lengthAdjust="spacing" textLength="91" x="434.5" y="563.3906">&#38656;&#35201;&#20195;&#29702;&#35268;&#21017;&#65306;</text><text fill="#000000" font-family="Microsoft YaHei" font-size="13" lengthAdjust="spacing" textLength="213.5923" x="434.5" y="580.5483">- /api/*  -&gt; http://localhost:9090/*</text></g><g class="entity" data-entity="GMN36" data-source-line="67" data-uid="ent0037" id="entity_GMN36"><path d="M433,1245.4775 L433,1263.4775 L398.25,1267.4775 L433,1271.4775 L433,1289.793 A0,0 0 0 0 433,1289.793 L788.8008,1289.793 A0,0 0 0 0 788.8008,1289.793 L788.8008,1255.4775 L778.8008,1245.4775 L433,1245.4775 A0,0 0 0 0 433,1245.4775" fill="#FEFFDD" style="stroke:#181818;stroke-width:0.5;"/><path d="M778.8008,1245.4775 L778.8008,1255.4775 L788.8008,1255.4775 L778.8008,1245.4775" fill="#FEFFDD" style="stroke:#181818;stroke-width:0.5;"/><text fill="#000000" font-family="Microsoft YaHei" font-size="13" lengthAdjust="spacing" textLength="65" x="439" y="1264.2329">&#37197;&#32622;&#26469;&#28304;&#65306;</text><text fill="#000000" font-family="Microsoft YaHei" font-size="13" lengthAdjust="spacing" textLength="334.8008" x="439" y="1281.3906">springboot/src/main/resources/application.properties</text></g><!--link browser to web--><g class="link" data-entity-1="browser" data-entity-2="web" data-source-line="43" data-uid="lnk20" id="link_browser_web"><path d="M114,399.6775 C114,438.0775 114,500.4275 114,532.8975" fill="none" id="browser-to-web" style="stroke:#4B5563;stroke-width:1;"/><polygon fill="#4B5563" points="114,538.8975,118,529.8975,114,533.8975,110,529.8975,114,538.8975" style="stroke:#4B5563;stroke-width:1;"/><text fill="#000000" font-family="Microsoft YaHei" font-size="13" lengthAdjust="spacing" textLength="78" x="118.1707" y="455.2329">&#35775;&#38382;&#21069;&#31471;&#39029;&#38754;</text><text fill="#000000" font-family="Microsoft YaHei" font-size="13" lengthAdjust="spacing" textLength="84.3413" x="115" y="472.3906">HTML/CSS/JS</text></g><!--link web to spa--><g class="link" data-entity-1="web" data-entity-2="spa" data-source-line="44" data-uid="lnk21" id="link_web_spa"><path d="M133.93,538.8675 C154.54,521.3875 188.49,495.9275 223,484.4775 C254.47,474.0375 339.32,482.0675 372,476.4775 C440.48,464.7575 480.36,488.0875 522,432.4775 C529.8,422.0575 528.51,223.7175 521,201.4775 C513.27,178.5975 501.1474,161.2898 486.7774,145.0598" fill="none" id="web-to-spa" style="stroke:#4B5563;stroke-width:1;"/><polygon fill="#4B5563" points="482.8,140.5675,485.7713,149.9575,486.1145,144.3111,491.7609,144.6543,482.8,140.5675" style="stroke:#4B5563;stroke-width:1;"/></g><!--link spa to views--><g class="link" data-entity-1="spa" data-entity-2="views" data-source-line="45" data-uid="lnk22" id="link_spa_views"><path d="M452.6,140.7575 C451.02,159.1275 449.4623,177.1195 447.8923,195.4395" fill="none" id="spa-to-views" style="stroke:#4B5563;stroke-width:1;"/><polygon fill="#4B5563" points="447.38,201.4175,452.1339,192.792,447.8069,196.4358,444.1631,192.1089,447.38,201.4175" style="stroke:#4B5563;stroke-width:1;"/></g><!--link views to vuex--><g class="link" data-entity-1="views" data-entity-2="vuex" data-source-line="46" data-uid="lnk23" id="link_views_vuex"><path d="M449.2,258.7675 C452.86,283.0175 457.2539,312.0648 460.9139,336.2948" fill="none" id="views-to-vuex" style="stroke:#4B5563;stroke-width:1;"/><polygon fill="#4B5563" points="461.81,342.2275,464.4209,332.7311,461.0632,337.2836,456.5106,333.9259,461.81,342.2275" style="stroke:#4B5563;stroke-width:1;"/></g><!--link views to axios--><g class="link" data-entity-1="views" data-entity-2="axios" data-source-line="47" data-uid="lnk24" id="link_views_axios"><path d="M417.81,258.7675 C396.88,280.1675 371.9555,305.6283 349.1155,328.9783" fill="none" id="views-to-axios" style="stroke:#4B5563;stroke-width:1;"/><polygon fill="#4B5563" points="344.92,333.2675,354.0728,329.6307,348.4163,329.6932,348.3538,324.0367,344.92,333.2675" style="stroke:#4B5563;stroke-width:1;"/></g><!--link axios to proxy--><g class="link" data-entity-1="axios" data-entity-2="proxy" data-source-line="49" data-uid="lnk25" id="link_axios_proxy"><path d="M310.58,408.5275 C312.12,444.0175 314.1508,491.1031 315.5408,523.2431" fill="none" id="axios-to-proxy" style="stroke:#4B5563;stroke-width:1;"/><polygon fill="#4B5563" points="315.8,529.2375,319.4074,520.0731,315.584,524.2422,311.4149,520.4188,315.8,529.2375" style="stroke:#4B5563;stroke-width:1;"/><text fill="#000000" font-family="Microsoft YaHei" font-size="13" lengthAdjust="spacing" textLength="49.0991" x="314" y="455.2329">HTTP(S)</text><text fill="#000000" font-family="Microsoft YaHei" font-size="13" lengthAdjust="spacing" textLength="41.8882" x="317.6055" y="472.3906">/api/**</text></g><!--link proxy to ctrl--><g class="link" data-entity-1="proxy" data-entity-2="ctrl" data-source-line="50" data-uid="lnk26" id="link_proxy_ctrl"><path d="M317,586.7075 C317,614.4075 317,651.4575 317,684.3075" fill="none" id="proxy-to-ctrl" style="stroke:#4B5563;stroke-width:1;"/><polygon fill="#4B5563" points="317,690.3075,321,681.3075,317,685.3075,313,681.3075,317,690.3075" style="stroke:#4B5563;stroke-width:1;"/><text fill="#000000" font-family="Microsoft YaHei" font-size="13" lengthAdjust="spacing" textLength="99.436" x="318" y="633.2329">&#36716;&#21457;&#21040;&#21518;&#31471; REST</text></g><!--link ctrl to session--><g class="link" data-entity-1="ctrl" data-entity-2="session" data-source-line="52" data-uid="lnk27" id="link_ctrl_session"><path d="M227.94,784.5775 C215.03,793.4675 202.55,803.4875 192,814.4775 C165.72,841.8475 148.6646,875.9778 137.6946,902.3478" fill="none" id="ctrl-to-session" style="stroke:#4B5563;stroke-width:1;"/><polygon fill="#4B5563" points="135.39,907.8875,142.54,901.1143,137.3105,903.2711,135.1537,898.0415,135.39,907.8875" style="stroke:#4B5563;stroke-width:1;"/><text fill="#000000" font-family="Microsoft YaHei" font-size="13" lengthAdjust="spacing" textLength="115.1084" x="193" y="829.2329">&#30331;&#24405;/&#36864;&#20986;/&#21152;&#36733;&#36523;&#20221;</text><text fill="#000000" font-family="Microsoft YaHei" font-size="13" lengthAdjust="spacing" textLength="108.0498" x="196.5293" y="846.3906">&#20889;&#20837;/&#35835;&#21462; Session</text></g><!--link ctrl to svc--><g class="link" data-entity-1="ctrl" data-entity-2="svc" data-source-line="53" data-uid="lnk28" id="link_ctrl_svc"><path d="M317,784.6675 C317,822.8775 317,869.8875 317,901.8175" fill="none" id="ctrl-to-svc" style="stroke:#4B5563;stroke-width:1;"/><polygon fill="#4B5563" points="317,907.8175,321,898.8175,317,902.8175,313,898.8175,317,907.8175" style="stroke:#4B5563;stroke-width:1;"/><text fill="#000000" font-family="Microsoft YaHei" font-size="13" lengthAdjust="spacing" textLength="52" x="318" y="837.7329">&#19994;&#21153;&#35843;&#29992;</text></g><!--link svc to mybatis--><g class="link" data-entity-1="svc" data-entity-2="mybatis" data-source-line="54" data-uid="lnk29" id="link_svc_mybatis"><path d="M317,965.2475 C317,996.9575 317,1042.5175 317,1074.2175" fill="none" id="svc-to-mybatis" style="stroke:#4B5563;stroke-width:1;"/><polygon fill="#4B5563" points="317,1080.2175,321,1071.2175,317,1075.2175,313,1071.2175,317,1080.2175" style="stroke:#4B5563;stroke-width:1;"/><text fill="#000000" font-family="Microsoft YaHei" font-size="13" lengthAdjust="spacing" textLength="52" x="318" y="1037.2329">&#25968;&#25454;&#35775;&#38382;</text></g><!--link mybatis to db--><g class="link" data-entity-1="mybatis" data-entity-2="db" data-source-line="55" data-uid="lnk30" id="link_mybatis_db"><path d="M317,1137.5975 C317,1161.9075 317,1191.6275 317,1219.3075" fill="none" id="mybatis-to-db" style="stroke:#4B5563;stroke-width:1;"/><polygon fill="#4B5563" points="317,1225.3075,321,1216.3075,317,1220.3075,313,1216.3075,317,1225.3075" style="stroke:#4B5563;stroke-width:1;"/><text fill="#000000" font-family="Microsoft YaHei" font-size="13" lengthAdjust="spacing" textLength="81.8086" x="318" y="1191.2329">JDBC/MySQL</text></g><!--link ctrl to fileSvc--><g class="link" data-entity-1="ctrl" data-entity-2="fileSvc" data-source-line="57" data-uid="lnk31" id="link_ctrl_fileSvc"><path d="M362.25,784.6675 C390.33,813.3275 422.3616,846.0211 451.9116,876.1911" fill="none" id="ctrl-to-fileSvc" style="stroke:#4B5563;stroke-width:1;"/><polygon fill="#4B5563" points="456.11,880.4775,452.6701,871.2489,452.6114,876.9055,446.9548,876.8468,456.11,880.4775" style="stroke:#4B5563;stroke-width:1;"/><text fill="#000000" font-family="Microsoft YaHei" font-size="13" lengthAdjust="spacing" textLength="135.5542" x="426" y="837.7329">&#22836;&#20687;/&#25991;&#20214;&#19978;&#20256;&#19982;&#21021;&#22987;&#21270;</text></g><!--link fileSvc to fileStore--><g class="link" data-entity-1="fileSvc" data-entity-2="fileStore" data-source-line="58" data-uid="lnk32" id="link_fileSvc_fileStore"><path d="M578.54,992.5975 C610.6,1018.3775 643.2241,1044.6278 671.7541,1067.5678" fill="none" id="fileSvc-to-fileStore" style="stroke:#4B5563;stroke-width:1;"/><polygon fill="#4B5563" points="676.43,1071.3275,671.9226,1062.5706,672.5334,1068.1944,666.9096,1068.8052,676.43,1071.3275" style="stroke:#4B5563;stroke-width:1;"/><text fill="#000000" font-family="Microsoft YaHei" font-size="13" lengthAdjust="spacing" textLength="78" x="635" y="1037.2329">&#35835;&#20889;&#22270;&#29255;&#25991;&#20214;</text></g><!--SRC=[RLLjJnDP5Fu-l-86FwWOk6e1OnCteOK9Qy2m53VPR3Vhj7CB8zEvpPrfiJ4cY6-LNLxCgYiAhEYwaE2MkhkAMgf_fdTc-ic_iEVUEuN6qAJfp3rlppddUMuzoxC9QkqyyPzlykhdiB8OL3U3bRl1l_MW_WVgGVvSlTdupTzuvs_Sviy-VTclf0hCSgPGWb8FdKBV5ycN_VkQvivOJi5WHXwvquP9PuLBph1Tqc79qdo1EiJnKbuPgZAIzGndokvqCKdEADgUJXtlaf4dQCpACkhId8T-C4Q8rU4vo1YTJLARCdIiBz7VFn3hC4wqKoSeCmcBt6Bd-ixqdpdIpSZEJ35QTCp8LPSVJJkEBeWFIjeMu4OfooJgH3j0ZxfuzOLVsGjsThkGuQAiSZscdzS7zGIwhY7qe_zsETogyDNjj7DYF8c3hJfVs8Q0ap-9Y0nquXActJYifpEO077C8uhTNuH0s0DC7iLW0yCsoOk2utRHXLL833c2ZWqFwsTrNTKNlgdnGQXUAf8UGAWAkmL3M0UlMTH5uUwU_sQUrsw6B- -adOpXaiiJenUmKR3IZaTdY1D7Bd5TYpefZp9ZYiWKXeWLISAztU3X6zpQVDjQVv5sIXQPTG4T3DKZJBhA8-4QBBppvsugegKTm7PDsU6XSmPYAKUFO6L9ZQ2JYcTx1tfZxVupel-aFgJtg_udXbEJA0aZPTIs2Kix6BbU4M73p5iEmYPb-J73WPw4YL6QHpXJj6nJPCSEzQmi4GPIC2o6SCboBHY12BzQTBq9y9SDP3rcYsefDIRKt7yQxgwddH7FAqHdSNGPDes_DM5ZbbTMMr0c5SbAK0irtp_b2vlypJnip5zRX6T_wHLVVebvTIDOgaNRAsL5p5WvONYMU-AK8C39j3Dc50fG8lNTgFJAbpF2B5du-5wp_axbWtPobarSN2pOr30FNYt7yWPBXcSmV5sSEA326sc7trtbTrw1P5rQP5dmazvf9m4q6UX3uUU7_Da6__C_VcjPLXNc5E3hMESG94MZHfcmQACc70YQeQwnCg25LiKUn6JBF-VLDg0TcsODUvgwNZmMEpqWjsjcf40JmmajHstGD-horrxpjPfgaF_zXC-3qhu2YxjxhnQckWxGGHqYyvmR7Zf4UObuivJD88p66RrMFe9y-tDy-G5ktTeE6l_0J60hCYTG1Ggwa36cz-a3YdTAh6Y8bCHcOIkjzLL1_PtLOFw37DGioKZ7vKM-yg1PVoabmMjtaH0Uwla6ARB7pvy-Vre650IiphbE41iMJ1qtmXhT9gW7WY4xYgEm-hdrUrLXQUjpP79i52TJANmnfGaluIsk0_ZAPoLMfMBvBiHv-AfahyaVUI1XGQsHoSdn4odOcy2FkxirPH0kGXu2JUCr391NQgep9BIfQT8eGKJYYQDWjSuRZt1hRexV-uZvmlEmqGW_xZJhZJOVSRXRvykFKIIkZYIbB2HGAWfhjuA7sveu4gP83s3s7zNynQeQZjO-5Ywc6Dh5eKGIIs9sW8je3MR5TQmOrto_qDn_tdo_n2lhVEiN_kjZhUrv42Nf1jq3Oi3-x5Dm_vuArZIuOE3Vq9gQzX3DHGkEc7CbkeVZwBWOwF4hMcjjBlphfc9Ak7MRLrQ_x3_LUf2QDnAKcORx9exneN84UN2t9YvJKUlhYcP6QzrP31fLV_sL_t55v7FbpPg1YnMxB8lpXYMklxQUu8QnhQnaNI_0XUl6iuXxcFz_]--></g></svg>