<svg xmlns="http://www.w3.org/2000/svg" xmlns:xlink="http://www.w3.org/1999/xlink" contentStyleType="text/css" data-diagram-type="DESCRIPTION" height="1563px" preserveAspectRatio="none" style="width:956px;height:1563px;background:#FFFFFF;" version="1.1" viewBox="0 0 956 1563" width="956px" zoomAndPan="magnify"><title>&#39640;&#26657;&#23487;&#33293;&#31649;&#29702;&#31995;&#32479; - &#31995;&#32479;&#26550;&#26500;&#22270;&#65288;&#31616;&#27905;&#29256;&#65289;</title><defs/><g><g class="title" data-source-line="1"><text fill="#000000" font-family="Microsoft YaHei" font-size="14" font-weight="bold" lengthAdjust="spacing" textLength="266.4512" x="338.0244" y="34.8135">&#39640;&#26657;&#23487;&#33293;&#31649;&#29702;&#31995;&#32479; - &#31995;&#32479;&#26550;&#26500;&#22270;&#65288;&#31616;&#27905;&#29256;&#65289;</text></g><!--cluster L0--><g class="cluster" data-entity="L0" data-source-line="44" data-uid="ent0002" id="cluster_L0"><path d="M207,65.4775 L293,65.4775 A7.5,7.5 0 0 1 298,70.4775 L305,109.9551 L609,109.9551 A5,5 0 0 1 614,114.9551 L614,191.4775 A5,5 0 0 1 609,196.4775 L207,196.4775 A5,5 0 0 1 202,191.4775 L202,70.4775 A5,5 0 0 1 207,65.4775" fill="#E0F2FE" style="stroke:#CBD5E1;stroke-width:1.5;"/><line style="stroke:#CBD5E1;stroke-width:1.5;" x1="202" x2="305" y1="109.9551" y2="109.9551"/><text fill="#111827" font-family="Microsoft YaHei" font-size="14" font-weight="bold" lengthAdjust="spacing" textLength="70" x="216" y="92.291">&#21069;&#31471;&#20132;&#20114;&#23618;</text></g><!--cluster L1--><g class="cluster" data-entity="L1" data-source-line="50" data-uid="ent0006" id="cluster_L1"><path d="M11,220.4775 L97,220.4775 A7.5,7.5 0 0 1 102,225.4775 L109,264.9551 L275,264.9551 A5,5 0 0 1 280,269.9551 L280,599.9775 A5,5 0 0 1 275,604.9775 L11,604.9775 A5,5 0 0 1 6,599.9775 L6,225.4775 A5,5 0 0 1 11,220.4775" fill="#EEF2FF" style="stroke:#CBD5E1;stroke-width:1.5;"/><line style="stroke:#CBD5E1;stroke-width:1.5;" x1="6" x2="109" y1="264.9551" y2="264.9551"/><text fill="#111827" font-family="Microsoft YaHei" font-size="14" font-weight="bold" lengthAdjust="spacing" textLength="70" x="20" y="247.291">&#21069;&#31471;&#24212;&#29992;&#23618;</text></g><!--cluster fe_g1--><g class="cluster" data-entity="fe_g1" data-source-line="52" data-uid="ent0008" id="cluster_fe_g1"><path d="M85,285.4775 L157,285.4775 A7.5,7.5 0 0 1 162,290.4775 L169,329.9551 L175,329.9551 A5,5 0 0 1 180,334.9551 L180,411.4775 A5,5 0 0 1 175,416.4775 L85,416.4775 A5,5 0 0 1 80,411.4775 L80,290.4775 A5,5 0 0 1 85,285.4775" fill="#FFFFFF" style="stroke:#CBD5E1;stroke-width:1.5;"/><line style="stroke:#CBD5E1;stroke-width:1.5;" x1="80" x2="169" y1="329.9551" y2="329.9551"/><text fill="#111827" font-family="Microsoft YaHei" font-size="14" font-weight="bold" lengthAdjust="spacing" textLength="56" x="94" y="312.291">&#39029;&#38754;&#23637;&#31034;</text></g><!--cluster fe_g2--><g class="cluster" data-entity="fe_g2" data-source-line="55" data-uid="ent0010" id="cluster_fe_g2"><path d="M35,449.9775 L121,449.9775 A7.5,7.5 0 0 1 126,454.9775 L133,494.4551 L251,494.4551 A5,5 0 0 1 256,499.4551 L256,575.9775 A5,5 0 0 1 251,580.9775 L35,580.9775 A5,5 0 0 1 30,575.9775 L30,454.9775 A5,5 0 0 1 35,449.9775" fill="#FFFFFF" style="stroke:#CBD5E1;stroke-width:1.5;"/><line style="stroke:#CBD5E1;stroke-width:1.5;" x1="30" x2="133" y1="494.4551" y2="494.4551"/><text fill="#111827" font-family="Microsoft YaHei" font-size="14" font-weight="bold" lengthAdjust="spacing" textLength="70" x="44" y="476.791">&#25968;&#25454;&#19982;&#20132;&#20114;</text></g><!--cluster L2--><g class="cluster" data-entity="L2" data-source-line="61" data-uid="ent0013" id="cluster_L2"><path d="M309,440.4775 L367,440.4775 A7.5,7.5 0 0 1 372,445.4775 L379,484.9551 L705,484.9551 A5,5 0 0 1 710,489.9551 L710,585.4775 A5,5 0 0 1 705,590.4775 L309,590.4775 A5,5 0 0 1 304,585.4775 L304,445.4775 A5,5 0 0 1 309,440.4775" fill="#F3F4F6" style="stroke:#CBD5E1;stroke-width:1.5;"/><line style="stroke:#CBD5E1;stroke-width:1.5;" x1="304" x2="379" y1="484.9551" y2="484.9551"/><text fill="#111827" font-family="Microsoft YaHei" font-size="14" font-weight="bold" lengthAdjust="spacing" textLength="42" x="318" y="467.291">&#25509;&#20837;&#23618;</text></g><!--cluster L3--><g class="cluster" data-entity="L3" data-source-line="67" data-uid="ent0017" id="cluster_L3"><path d="M219,628.9775 L305,628.9775 A7.5,7.5 0 0 1 310,633.9775 L317,673.4551 L535,673.4551 A5,5 0 0 1 540,678.4551 L540,1172.9775 A5,5 0 0 1 535,1177.9775 L219,1177.9775 A5,5 0 0 1 214,1172.9775 L214,633.9775 A5,5 0 0 1 219,628.9775" fill="#ECFDF5" style="stroke:#CBD5E1;stroke-width:1.5;"/><line style="stroke:#CBD5E1;stroke-width:1.5;" x1="214" x2="317" y1="673.4551" y2="673.4551"/><text fill="#111827" font-family="Microsoft YaHei" font-size="14" font-weight="bold" lengthAdjust="spacing" textLength="70" x="228" y="655.791">&#21518;&#31471;&#26381;&#21153;&#23618;</text></g><!--cluster be_g1--><g class="cluster" data-entity="be_g1" data-source-line="69" data-uid="ent0019" id="cluster_be_g1"><path d="M307,693.9775 L379,693.9775 A7.5,7.5 0 0 1 384,698.9775 L391,738.4551 L435,738.4551 A5,5 0 0 1 440,743.4551 L440,838.9775 A5,5 0 0 1 435,843.9775 L307,843.9775 A5,5 0 0 1 302,838.9775 L302,698.9775 A5,5 0 0 1 307,693.9775" fill="#FFFFFF" style="stroke:#CBD5E1;stroke-width:1.5;"/><line style="stroke:#CBD5E1;stroke-width:1.5;" x1="302" x2="391" y1="738.4551" y2="738.4551"/><text fill="#111827" font-family="Microsoft YaHei" font-size="14" font-weight="bold" lengthAdjust="spacing" textLength="56" x="316" y="720.791">&#23545;&#22806;&#26381;&#21153;</text></g><!--cluster be_g2--><g class="cluster" data-entity="be_g2" data-source-line="72" data-uid="ent0021" id="cluster_be_g2"><path d="M243,867.9775 L315,867.9775 A7.5,7.5 0 0 1 320,872.9775 L327,912.4551 L501,912.4551 A5,5 0 0 1 506,917.4551 L506,993.9775 A5,5 0 0 1 501,998.9775 L243,998.9775 A5,5 0 0 1 238,993.9775 L238,872.9775 A5,5 0 0 1 243,867.9775" fill="#FFFFFF" style="stroke:#CBD5E1;stroke-width:1.5;"/><line style="stroke:#CBD5E1;stroke-width:1.5;" x1="238" x2="327" y1="912.4551" y2="912.4551"/><text fill="#111827" font-family="Microsoft YaHei" font-size="14" font-weight="bold" lengthAdjust="spacing" textLength="56" x="252" y="894.791">&#19994;&#21153;&#22788;&#29702;</text></g><!--cluster be_g3--><g class="cluster" data-entity="be_g3" data-source-line="76" data-uid="ent0024" id="cluster_be_g3"><path d="M243,1022.9775 L315,1022.9775 A7.5,7.5 0 0 1 320,1027.9775 L327,1067.4551 L493,1067.4551 A5,5 0 0 1 498,1072.4551 L498,1148.9775 A5,5 0 0 1 493,1153.9775 L243,1153.9775 A5,5 0 0 1 238,1148.9775 L238,1027.9775 A5,5 0 0 1 243,1022.9775" fill="#FFFFFF" style="stroke:#CBD5E1;stroke-width:1.5;"/><line style="stroke:#CBD5E1;stroke-width:1.5;" x1="238" x2="327" y1="1067.4551" y2="1067.4551"/><text fill="#111827" font-family="Microsoft YaHei" font-size="14" font-weight="bold" lengthAdjust="spacing" textLength="56" x="252" y="1049.791">&#36164;&#28304;&#33021;&#21147;</text></g><!--cluster L4--><g class="cluster" data-entity="L4" data-source-line="82" data-uid="ent0027" id="cluster_L4"><path d="M133,1209.9775 L233,1209.9775 A7.5,7.5 0 0 1 238,1214.9775 L245,1254.4551 L525,1254.4551 A5,5 0 0 1 530,1259.4551 L530,1388.9775 A5,5 0 0 1 525,1393.9775 L133,1393.9775 A5,5 0 0 1 128,1388.9775 L128,1214.9775 A5,5 0 0 1 133,1209.9775" fill="#FEF9C3" style="stroke:#CBD5E1;stroke-width:1.5;"/><line style="stroke:#CBD5E1;stroke-width:1.5;" x1="128" x2="245" y1="1254.4551" y2="1254.4551"/><text fill="#111827" font-family="Microsoft YaHei" font-size="14" font-weight="bold" lengthAdjust="spacing" textLength="84" x="142" y="1236.791">&#25968;&#25454;&#19982;&#36164;&#28304;&#23618;</text></g><!--cluster L5--><g class="cluster" data-entity="L5" data-source-line="88" data-uid="ent0031" id="cluster_L5"><path d="M418,1425.9775 L504,1425.9775 A7.5,7.5 0 0 1 509,1430.9775 L516,1470.4551 L738,1470.4551 A5,5 0 0 1 743,1475.4551 L743,1551.9775 A5,5 0 0 1 738,1556.9775 L418,1556.9775 A5,5 0 0 1 413,1551.9775 L413,1430.9775 A5,5 0 0 1 418,1425.9775" fill="#FCE7F3" style="stroke:#CBD5E1;stroke-width:1.5;"/><line style="stroke:#CBD5E1;stroke-width:1.5;" x1="413" x2="516" y1="1470.4551" y2="1470.4551"/><text fill="#111827" font-family="Microsoft YaHei" font-size="14" font-weight="bold" lengthAdjust="spacing" textLength="70" x="427" y="1452.791">&#36816;&#34892;&#20445;&#38556;&#23618;</text></g><!--entity bar0--><g class="entity" data-entity="bar0" data-source-line="45" data-uid="ent0003" id="entity_bar0"><rect fill="#93C5FD" height="58.4775" rx="5" ry="5" style="stroke:#334155;stroke-width:0.5;" width="82" x="218" y="122.4775"/><text fill="#0F172A" font-family="Microsoft YaHei" font-size="14" lengthAdjust="spacing" textLength="42" x="238" y="157.291">&#20132;&#20114;&#23618;</text></g><!--entity client_pc--><g class="entity" data-entity="client_pc" data-source-line="46" data-uid="ent0004" id="entity_client_pc"><rect fill="#FFFFFF" height="58.4775" rx="5" ry="5" style="stroke:#334155;stroke-width:0.5;" width="114.1973" x="330" y="122.4775"/><text fill="#0F172A" font-family="Microsoft YaHei" font-size="14" lengthAdjust="spacing" textLength="74.1973" x="350" y="157.291">PC / &#27983;&#35272;&#22120;</text></g><!--entity client_mobile--><g class="entity" data-entity="client_mobile" data-source-line="47" data-uid="ent0005" id="entity_client_mobile"><rect fill="#FFFFFF" height="58.4775" rx="5" ry="5" style="stroke:#334155;stroke-width:0.5;" width="124.2666" x="474" y="122.4775"/><text fill="#0F172A" font-family="Microsoft YaHei" font-size="14" lengthAdjust="spacing" textLength="84.2666" x="494" y="157.291">&#25163;&#26426; / &#27983;&#35272;&#22120;</text></g><!--entity bar1--><g class="entity" data-entity="bar1" data-source-line="51" data-uid="ent0007" id="entity_bar1"><rect fill="#A5B4FC" height="58.4775" rx="5" ry="5" style="stroke:#334155;stroke-width:0.5;" width="68" x="196" y="342.4775"/><text fill="#0F172A" font-family="Microsoft YaHei" font-size="14" lengthAdjust="spacing" textLength="28" x="216" y="377.291">&#21069;&#31471;</text></g><!--entity fe_views--><g class="entity" data-entity="fe_views" data-source-line="53" data-uid="ent0009" id="entity_fe_views"><rect fill="#FFFFFF" height="58.4775" rx="5" ry="5" style="stroke:#334155;stroke-width:0.5;" width="68" x="96" y="342.4775"/><text fill="#0F172A" font-family="Microsoft YaHei" font-size="14" lengthAdjust="spacing" textLength="28" x="116" y="377.291">&#39029;&#38754;</text></g><!--entity fe_vuex--><g class="entity" data-entity="fe_vuex" data-source-line="56" data-uid="ent0011" id="entity_fe_vuex"><rect fill="#FFFFFF" height="58.4775" rx="5" ry="5" style="stroke:#334155;stroke-width:0.5;" width="68" x="172" y="506.9775"/><text fill="#0F172A" font-family="Microsoft YaHei" font-size="14" lengthAdjust="spacing" textLength="28" x="192" y="541.791">&#29366;&#24577;</text></g><!--entity fe_axios--><g class="entity" data-entity="fe_axios" data-source-line="57" data-uid="ent0012" id="entity_fe_axios"><rect fill="#FFFFFF" height="58.4775" rx="5" ry="5" style="stroke:#334155;stroke-width:0.5;" width="96" x="46" y="506.9775"/><text fill="#0F172A" font-family="Microsoft YaHei" font-size="14" lengthAdjust="spacing" textLength="56" x="66" y="541.791">&#25509;&#21475;&#35843;&#29992;</text></g><!--entity bar2--><g class="entity" data-entity="bar2" data-source-line="62" data-uid="ent0014" id="entity_bar2"><rect fill="#D1D5DB" height="58.4775" rx="5" ry="5" style="stroke:#334155;stroke-width:0.5;" width="68" x="456" y="506.9775"/><text fill="#0F172A" font-family="Microsoft YaHei" font-size="14" lengthAdjust="spacing" textLength="28" x="476" y="541.791">&#25509;&#20837;</text></g><!--entity ingress_web--><g class="entity" data-entity="ingress_web" data-source-line="63" data-uid="ent0015" id="entity_ingress_web"><rect fill="#FFFFFF" height="76.9551" rx="5" ry="5" style="stroke:#334155;stroke-width:0.5;" width="139.333" x="554.5" y="497.4775"/><text fill="#0F172A" font-family="Microsoft YaHei" font-size="14" lengthAdjust="spacing" textLength="56" x="574.5" y="532.291">&#35775;&#38382;&#20837;&#21475;</text><text fill="#0F172A" font-family="Microsoft YaHei" font-size="14" lengthAdjust="spacing" textLength="99.333" x="574.5" y="550.7686">(&#32593;&#39029;/&#38745;&#24577;&#36164;&#28304;)</text></g><!--entity ingress_proxy--><g class="entity" data-entity="ingress_proxy" data-source-line="64" data-uid="ent0016" id="entity_ingress_proxy"><rect fill="#FFFFFF" height="76.9551" rx="5" ry="5" style="stroke:#334155;stroke-width:0.5;" width="105.3516" x="320.5" y="497.4775"/><text fill="#0F172A" font-family="Microsoft YaHei" font-size="14" lengthAdjust="spacing" textLength="56" x="340.5" y="532.291">&#25509;&#21475;&#36716;&#21457;</text><text fill="#0F172A" font-family="Microsoft YaHei" font-size="14" lengthAdjust="spacing" textLength="65.3516" x="340.5" y="550.7686">(&#32479;&#19968;&#20837;&#21475;)</text></g><!--entity bar3--><g class="entity" data-entity="bar3" data-source-line="68" data-uid="ent0018" id="entity_bar3"><rect fill="#86EFAC" height="58.4775" rx="5" ry="5" style="stroke:#334155;stroke-width:0.5;" width="68" x="456" y="760.4775"/><text fill="#0F172A" font-family="Microsoft YaHei" font-size="14" lengthAdjust="spacing" textLength="28" x="476" y="795.291">&#21518;&#31471;</text></g><!--entity be_ctrl--><g class="entity" data-entity="be_ctrl" data-source-line="70" data-uid="ent0020" id="entity_be_ctrl"><rect fill="#FFFFFF" height="76.9551" rx="5" ry="5" style="stroke:#334155;stroke-width:0.5;" width="105.3516" x="318.5" y="750.9775"/><text fill="#0F172A" font-family="Microsoft YaHei" font-size="14" lengthAdjust="spacing" textLength="56" x="338.5" y="785.791">&#19994;&#21153;&#25509;&#21475;</text><text fill="#0F172A" font-family="Microsoft YaHei" font-size="14" lengthAdjust="spacing" textLength="65.3516" x="338.5" y="804.2686">(&#21151;&#33021;&#27169;&#22359;)</text></g><!--entity be_session--><g class="entity" data-entity="be_session" data-source-line="73" data-uid="ent0022" id="entity_be_session"><rect fill="#FFFFFF" height="58.4775" rx="5" ry="5" style="stroke:#334155;stroke-width:0.5;" width="110" x="380" y="924.9775"/><text fill="#0F172A" font-family="Microsoft YaHei" font-size="14" lengthAdjust="spacing" textLength="70" x="400" y="959.791">&#30331;&#24405;&#19982;&#36523;&#20221;</text></g><!--entity be_svc--><g class="entity" data-entity="be_svc" data-source-line="74" data-uid="ent0023" id="entity_be_svc"><rect fill="#FFFFFF" height="58.4775" rx="5" ry="5" style="stroke:#334155;stroke-width:0.5;" width="96" x="254" y="924.9775"/><text fill="#0F172A" font-family="Microsoft YaHei" font-size="14" lengthAdjust="spacing" textLength="56" x="274" y="959.791">&#19994;&#21153;&#36923;&#36753;</text></g><!--entity be_mapper--><g class="entity" data-entity="be_mapper" data-source-line="77" data-uid="ent0025" id="entity_be_mapper"><rect fill="#FFFFFF" height="58.4775" rx="5" ry="5" style="stroke:#334155;stroke-width:0.5;" width="96" x="254" y="1079.9775"/><text fill="#0F172A" font-family="Microsoft YaHei" font-size="14" lengthAdjust="spacing" textLength="56" x="274" y="1114.791">&#25968;&#25454;&#35835;&#20889;</text></g><!--entity be_files--><g class="entity" data-entity="be_files" data-source-line="78" data-uid="ent0026" id="entity_be_files"><rect fill="#FFFFFF" height="58.4775" rx="5" ry="5" style="stroke:#334155;stroke-width:0.5;" width="101.9814" x="380" y="1079.9775"/><text fill="#0F172A" font-family="Microsoft YaHei" font-size="14" lengthAdjust="spacing" textLength="61.9814" x="400" y="1114.791">&#22270;&#29255;/&#25991;&#20214;</text></g><!--entity bar4--><g class="entity" data-entity="bar4" data-source-line="83" data-uid="ent0028" id="entity_bar4"><rect fill="#FDE68A" height="58.4775" rx="5" ry="5" style="stroke:#334155;stroke-width:0.5;" width="68" x="438" y="1293.4775"/><text fill="#0F172A" font-family="Microsoft YaHei" font-size="14" lengthAdjust="spacing" textLength="28" x="458" y="1328.291">&#25968;&#25454;</text></g><!--entity db--><g class="entity" data-entity="db" data-source-line="84" data-uid="ent0029" id="entity_db"><path d="M166,1289.4775 C166,1279.4775 214,1279.4775 214,1279.4775 C214,1279.4775 262,1279.4775 262,1289.4775 L262,1355.4326 C262,1365.4326 214,1365.4326 214,1365.4326 C214,1365.4326 166,1365.4326 166,1355.4326 L166,1289.4775" fill="#FFFBEB" style="stroke:#92400E;stroke-width:0.5;"/><path d="M166,1289.4775 C166,1299.4775 214,1299.4775 214,1299.4775 C214,1299.4775 262,1299.4775 262,1289.4775" fill="none" style="stroke:#92400E;stroke-width:0.5;"/><text fill="#000000" font-family="Microsoft YaHei" font-size="14" lengthAdjust="spacing" textLength="56" x="186" y="1328.291">&#19994;&#21153;&#25968;&#25454;</text><text fill="#000000" font-family="Microsoft YaHei" font-size="14" lengthAdjust="spacing" textLength="51.3516" x="186" y="1346.7686">(&#25968;&#25454;&#24211;)</text></g><!--entity fs--><g class="entity" data-entity="fs" data-source-line="85" data-uid="ent0030" id="entity_fs"><path d="M297.5,1274.9775 L333.5,1274.9775 A7.5,7.5 0 0 1 338.5,1279.9775 L345.5,1295.9775 L402.8516,1295.9775 A5,5 0 0 1 407.8516,1300.9775 L407.8516,1364.9326 A5,5 0 0 1 402.8516,1369.9326 L297.5,1369.9326 A5,5 0 0 1 292.5,1364.9326 L292.5,1279.9775 A5,5 0 0 1 297.5,1274.9775" fill="#FFF7ED" style="stroke:#9A3412;stroke-width:0.5;"/><line style="stroke:#9A3412;stroke-width:0.5;" x1="292.5" x2="345.5" y1="1295.9775" y2="1295.9775"/><text fill="#000000" font-family="Microsoft YaHei" font-size="14" lengthAdjust="spacing" textLength="61.9814" x="312.5" y="1327.791">&#22270;&#29255;/&#38468;&#20214;</text><text fill="#000000" font-family="Microsoft YaHei" font-size="14" lengthAdjust="spacing" textLength="65.3516" x="312.5" y="1346.2686">(&#26412;&#22320;&#23384;&#20648;)</text></g><!--entity bar5--><g class="entity" data-entity="bar5" data-source-line="89" data-uid="ent0032" id="entity_bar5"><rect fill="#F9A8D4" height="58.4775" rx="5" ry="5" style="stroke:#334155;stroke-width:0.5;" width="68" x="429" y="1482.9775"/><text fill="#0F172A" font-family="Microsoft YaHei" font-size="14" lengthAdjust="spacing" textLength="28" x="449" y="1517.791">&#20445;&#38556;</text></g><!--entity ops_log--><g class="entity" data-entity="ops_log" data-source-line="90" data-uid="ent0033" id="entity_ops_log"><rect fill="#FFFFFF" height="58.4775" rx="5" ry="5" style="stroke:#334155;stroke-width:0.5;" width="68" x="659" y="1482.9775"/><text fill="#0F172A" font-family="Microsoft YaHei" font-size="14" lengthAdjust="spacing" textLength="28" x="679" y="1517.791">&#26085;&#24535;</text></g><!--entity ops_mon--><g class="entity" data-entity="ops_mon" data-source-line="91" data-uid="ent0034" id="entity_ops_mon"><rect fill="#FFFFFF" height="58.4775" rx="5" ry="5" style="stroke:#334155;stroke-width:0.5;" width="101.9814" x="527" y="1482.9775"/><text fill="#0F172A" font-family="Microsoft YaHei" font-size="14" lengthAdjust="spacing" textLength="61.9814" x="547" y="1517.791">&#30417;&#25511;/&#21578;&#35686;</text></g><g class="entity" data-entity="GMN60" data-source-line="131" data-uid="ent0061" id="entity_GMN60"><path d="M726.5,508.9775 L726.5,563.293 A5,5 0 0 0 731.5,568.293 L944.5,568.293 A5,5 0 0 0 949.5,563.293 L949.5,513.9775 L939.5,503.9775 L731.5,503.9775 A5,5 0 0 0 726.5,508.9775" fill="#FFFBEB" style="stroke:#F59E0B;stroke-width:0.5;"/><path d="M939.5,503.9775 L939.5,511.4775 A2.5,2.5 0 0 0 942,513.9775 L949.5,513.9775 L939.5,503.9775" fill="#FFFBEB" style="stroke:#F59E0B;stroke-width:1;"/><text fill="#000000" font-family="Microsoft YaHei" font-size="13" lengthAdjust="spacing" textLength="182" x="742.5" y="532.7329">&#23545;&#22806;&#21482;&#26292;&#38706;&#19968;&#20010;&#8220;&#25509;&#21475;&#20837;&#21475;&#8221;&#65292;</text><text fill="#000000" font-family="Microsoft YaHei" font-size="13" lengthAdjust="spacing" textLength="182" x="742.5" y="549.8906">&#21069;&#31471;&#32479;&#19968;&#20174;&#36825;&#37324;&#35843;&#29992;&#21518;&#31471;&#26381;&#21153;&#12290;</text></g><g class="entity" data-entity="GMN63" data-source-line="136" data-uid="ent0064" id="entity_GMN63"><path d="M678.5,1286.9775 L678.5,1358.4507 A5,5 0 0 0 683.5,1363.4507 L840.9707,1363.4507 A5,5 0 0 0 845.9707,1358.4507 L845.9707,1291.9775 L835.9707,1281.9775 L683.5,1281.9775 A5,5 0 0 0 678.5,1286.9775" fill="#FFFBEB" style="stroke:#F59E0B;stroke-width:0.5;"/><path d="M835.9707,1281.9775 L835.9707,1289.4775 A2.5,2.5 0 0 0 838.4707,1291.9775 L845.9707,1291.9775 L835.9707,1281.9775" fill="#FFFBEB" style="stroke:#F59E0B;stroke-width:1;"/><text fill="#000000" font-family="Microsoft YaHei" font-size="13" lengthAdjust="spacing" textLength="91" x="694.5" y="1310.7329">&#25968;&#25454;&#20998;&#20026;&#20004;&#31867;&#65306;</text><text fill="#000000" font-family="Microsoft YaHei" font-size="13" lengthAdjust="spacing" textLength="126.4707" x="694.5" y="1327.8906">- &#19994;&#21153;&#25968;&#25454;&#65288;&#25968;&#25454;&#24211;&#65289;</text><text fill="#000000" font-family="Microsoft YaHei" font-size="13" lengthAdjust="spacing" textLength="119.0249" x="694.5" y="1345.0483">- &#22270;&#29255;/&#38468;&#20214;&#65288;&#23384;&#20648;&#65289;</text></g><!--link bar0 to bar1--><!--link bar0 to bar1--><!--link bar1 to bar2--><!--link bar1 to bar2--><!--link bar2 to bar3--><!--link bar2 to bar3--><!--link bar3 to bar4--><!--link bar3 to bar4--><!--link bar4 to bar5--><!--link bar4 to bar5--><!--link client_pc to ingress_web--><g class="link" data-entity-1="client_pc" data-entity-2="ingress_web" data-source-line="109" data-uid="lnk45" id="link_client_pc_ingress_web"><path d="M434.75,180.5375 C434.75,264.7575 434.75,502.9775 434.75,502.9775 C434.75,502.9775 494.38,502.9775 548.34,502.9775" fill="none" id="client_pc-to-ingress_web" style="stroke:#6B7280;stroke-width:1;"/><polygon fill="#6B7280" points="554.34,502.9775,545.34,498.9775,549.34,502.9775,545.34,506.9775,554.34,502.9775" style="stroke:#6B7280;stroke-width:1;"/><text fill="#000000" font-family="Microsoft YaHei" font-size="13" lengthAdjust="spacing" textLength="52" x="371.75" y="387.3129">&#35775;&#38382;&#31995;&#32479;</text></g><!--link client_mobile to ingress_web--><g class="link" data-entity-1="client_mobile" data-entity-2="ingress_web" data-source-line="110" data-uid="lnk46" id="link_client_mobile_ingress_web"><path d="M569,180.6975 C569,249.2175 569,414.2775 569,491.3075" fill="none" id="client_mobile-to-ingress_web" style="stroke:#6B7280;stroke-width:1;"/><polygon fill="#6B7280" points="569,497.3075,573,488.3075,569,492.3075,565,488.3075,569,497.3075" style="stroke:#6B7280;stroke-width:1;"/></g><!--link ingress_web to fe_views--><g class="link" data-entity-1="ingress_web" data-entity-2="fe_views" data-source-line="112" data-uid="lnk47" id="link_ingress_web_fe_views"><path d="M583.5,497.3275 C583.5,468.1075 583.5,432.9775 583.5,432.9775 C583.5,432.9775 149.33,432.9775 149.33,432.9775 C149.33,432.9775 149.33,422.6275 149.33,406.7875" fill="none" id="ingress_web-to-fe_views" style="stroke:#6B7280;stroke-width:1;"/><polygon fill="#6B7280" points="149.33,400.7875,145.33,409.7875,149.33,405.7875,153.33,409.7875,149.33,400.7875" style="stroke:#6B7280;stroke-width:1;"/></g><!--link fe_views to fe_vuex--><g class="link" data-entity-1="fe_views" data-entity-2="fe_vuex" data-source-line="113" data-uid="lnk48" id="link_fe_views_fe_vuex"><path d="M156.67,400.5075 C156.67,447.7375 156.67,535.9775 156.67,535.9775 C156.67,535.9775 157.32,535.9775 165.74,535.9775" fill="none" id="fe_views-to-fe_vuex" style="stroke:#6B7280;stroke-width:1;"/><polygon fill="#6B7280" points="171.74,535.9775,162.74,531.9775,166.74,535.9775,162.74,539.9775,171.74,535.9775" style="stroke:#6B7280;stroke-width:1;"/></g><!--link fe_views to fe_axios--><g class="link" data-entity-1="fe_views" data-entity-2="fe_axios" data-source-line="114" data-uid="lnk49" id="link_fe_views_fe_axios"><path d="M119,400.5075 C119,430.4875 119,470.9875 119,500.9575" fill="none" id="fe_views-to-fe_axios" style="stroke:#6B7280;stroke-width:1;"/><polygon fill="#6B7280" points="119,506.9575,123,497.9575,119,501.9575,115,497.9575,119,506.9575" style="stroke:#6B7280;stroke-width:1;"/></g><!--link fe_axios to ingress_proxy--><g class="link" data-entity-1="fe_axios" data-entity-2="ingress_proxy" data-source-line="116" data-uid="lnk50" id="link_fe_axios_ingress_proxy"><path d="M136,565.2475 C136,568.1075 136,569.9775 136,569.9775 C136,569.9775 244.58,569.9775 314.4,569.9775" fill="none" id="fe_axios-to-ingress_proxy" style="stroke:#6B7280;stroke-width:1;"/><polygon fill="#6B7280" points="320.4,569.9775,311.4,565.9775,315.4,569.9775,311.4,573.9775,320.4,569.9775" style="stroke:#6B7280;stroke-width:1;"/><text fill="#000000" font-family="Microsoft YaHei" font-size="13" lengthAdjust="spacing" textLength="52" x="162.84" y="594.7329">&#19994;&#21153;&#35831;&#27714;</text></g><!--link ingress_proxy to be_ctrl--><g class="link" data-entity-1="ingress_proxy" data-entity-2="be_ctrl" data-source-line="117" data-uid="lnk51" id="link_ingress_proxy_be_ctrl"><path d="M372,574.4775 C372,622.1275 372,696.7975 372,744.6175" fill="none" id="ingress_proxy-to-be_ctrl" style="stroke:#6B7280;stroke-width:1;"/><polygon fill="#6B7280" points="372,750.6175,376,741.6175,372,745.6175,368,741.6175,372,750.6175" style="stroke:#6B7280;stroke-width:1;"/><text fill="#000000" font-family="Microsoft YaHei" font-size="13" lengthAdjust="spacing" textLength="52" x="383" y="687.3029">&#36827;&#20837;&#21518;&#31471;</text></g><!--link be_ctrl to be_session--><g class="link" data-entity-1="be_ctrl" data-entity-2="be_session" data-source-line="119" data-uid="lnk52" id="link_be_ctrl_be_session"><path d="M401.75,828.0475 C401.75,857.6775 401.75,891.9575 401.75,918.9075" fill="none" id="be_ctrl-to-be_session" style="stroke:#6B7280;stroke-width:1;"/><polygon fill="#6B7280" points="401.75,924.9075,405.75,915.9075,401.75,919.9075,397.75,915.9075,401.75,924.9075" style="stroke:#6B7280;stroke-width:1;"/><text fill="#000000" font-family="Microsoft YaHei" font-size="13" lengthAdjust="spacing" textLength="52" x="412.75" y="862.2329">&#36523;&#20221;&#26657;&#39564;</text></g><!--link be_ctrl to be_svc--><g class="link" data-entity-1="be_ctrl" data-entity-2="be_svc" data-source-line="120" data-uid="lnk53" id="link_be_ctrl_be_svc"><path d="M334.25,828.0475 C334.25,857.6775 334.25,891.9575 334.25,918.9075" fill="none" id="be_ctrl-to-be_svc" style="stroke:#6B7280;stroke-width:1;"/><polygon fill="#6B7280" points="334.25,924.9075,338.25,915.9075,334.25,919.9075,330.25,915.9075,334.25,924.9075" style="stroke:#6B7280;stroke-width:1;"/><text fill="#000000" font-family="Microsoft YaHei" font-size="13" lengthAdjust="spacing" textLength="52" x="271.25" y="862.2329">&#22788;&#29702;&#19994;&#21153;</text></g><!--link be_svc to be_mapper--><g class="link" data-entity-1="be_svc" data-entity-2="be_mapper" data-source-line="121" data-uid="lnk54" id="link_be_svc_be_mapper"><path d="M302,983.1275 C302,1010.8475 302,1046.2875 302,1073.9575" fill="none" id="be_svc-to-be_mapper" style="stroke:#6B7280;stroke-width:1;"/><polygon fill="#6B7280" points="302,1079.9575,306,1070.9575,302,1074.9575,298,1070.9575,302,1079.9575" style="stroke:#6B7280;stroke-width:1;"/><text fill="#000000" font-family="Microsoft YaHei" font-size="13" lengthAdjust="spacing" textLength="52" x="239" y="1017.3029">&#35835;&#20889;&#25968;&#25454;</text></g><!--link be_mapper to db--><g class="link" data-entity-1="be_mapper" data-entity-2="db" data-source-line="122" data-uid="lnk55" id="link_be_mapper_db"><path d="M258,1138.2175 C258,1174.6475 258,1231.2075 258,1273.1975" fill="none" id="be_mapper-to-db" style="stroke:#6B7280;stroke-width:1;"/><polygon fill="#6B7280" points="258,1279.1975,262,1270.1975,258,1274.1975,254,1270.1975,258,1279.1975" style="stroke:#6B7280;stroke-width:1;"/><text fill="#000000" font-family="Microsoft YaHei" font-size="13" lengthAdjust="spacing" textLength="52" x="195" y="1194.4629">&#23384;&#21462;&#25968;&#25454;</text></g><!--link be_ctrl to be_files--><g class="link" data-entity-1="be_ctrl" data-entity-2="be_files" data-source-line="124" data-uid="lnk56" id="link_be_ctrl_be_files"><path d="M365,828.0175 C365,912.9975 365,1108.9775 365,1108.9775 C365,1108.9775 365.29,1108.9775 373.98,1108.9775" fill="none" id="be_ctrl-to-be_files" style="stroke:#6B7280;stroke-width:1;"/><polygon fill="#6B7280" points="379.98,1108.9775,370.98,1104.9775,374.98,1108.9775,370.98,1112.9775,379.98,1108.9775" style="stroke:#6B7280;stroke-width:1;"/><text fill="#000000" font-family="Microsoft YaHei" font-size="13" lengthAdjust="spacing" textLength="83.5542" x="323.5" y="1000.7429">&#19978;&#20256;/&#33719;&#21462;&#25991;&#20214;</text></g><!--link be_files to fs--><g class="link" data-entity-1="be_files" data-entity-2="fs" data-source-line="125" data-uid="lnk57" id="link_be_files_fs"><path d="M393.75,1138.2175 C393.75,1173.3875 393.75,1247.9275 393.75,1289.7875" fill="none" id="be_files-to-fs" style="stroke:#6B7280;stroke-width:1;"/><polygon fill="#6B7280" points="393.75,1295.7875,397.75,1286.7875,393.75,1290.7875,389.75,1286.7875,393.75,1295.7875" style="stroke:#6B7280;stroke-width:1;"/><text fill="#000000" font-family="Microsoft YaHei" font-size="13" lengthAdjust="spacing" textLength="52" x="330.75" y="1192.2529">&#23384;&#21462;&#25991;&#20214;</text></g><!--link be_ctrl to ops_log--><g class="link" data-entity-1="be_ctrl" data-entity-2="ops_log" data-source-line="127" data-uid="lnk58" id="link_be_ctrl_ops_log"><path d="M423.55,821.9775 C509.02,821.9775 668.75,821.9775 668.75,821.9775 C668.75,821.9775 668.75,1345.4375 668.75,1476.7675" fill="none" id="be_ctrl-to-ops_log" style="stroke:#6B7280;stroke-width:1;stroke-dasharray:7,7;"/><polygon fill="#6B7280" points="668.75,1482.7675,672.75,1473.7675,668.75,1477.7675,664.75,1473.7675,668.75,1482.7675" style="stroke:#6B7280;stroke-width:1;"/><text fill="#000000" font-family="Microsoft YaHei" font-size="13" lengthAdjust="spacing" textLength="26" x="631.75" y="1015.5229">&#35760;&#24405;</text></g><!--link be_ctrl to ops_mon--><g class="link" data-entity-1="be_ctrl" data-entity-2="ops_mon" data-source-line="128" data-uid="lnk59" id="link_be_ctrl_ops_mon"><path d="M423.78,824.9775 C473.61,824.9775 540.75,824.9775 540.75,824.9775 C540.75,824.9775 540.75,1346.1375 540.75,1476.8975" fill="none" id="be_ctrl-to-ops_mon" style="stroke:#6B7280;stroke-width:1;stroke-dasharray:7,7;"/><polygon fill="#6B7280" points="540.75,1482.8975,544.75,1473.8975,540.75,1477.8975,536.75,1473.8975,540.75,1482.8975" style="stroke:#6B7280;stroke-width:1;"/><text fill="#000000" font-family="Microsoft YaHei" font-size="13" lengthAdjust="spacing" textLength="26" x="503.75" y="1081.2029">&#30417;&#27979;</text></g><!--link ingress_proxy to GMN60--><g class="link" data-entity-1="ingress_proxy" data-entity-2="GMN60" data-source-line="131" data-uid="lnk62" id="link_ingress_proxy_GMN60"><path d="M377.75,497.2875 C377.75,481.1075 377.75,465.9775 377.75,465.9775 C377.75,465.9775 838,465.9775 838,465.9775 C838,465.9775 838,485.4475 838,503.8475" fill="none" id="ingress_proxy-GMN60" style="stroke:#6B7280;stroke-width:1;stroke-dasharray:7,7;"/></g><!--link L4 to GMN63--><g class="link" data-entity-1="L4" data-entity-2="GMN63" data-source-line="136" data-uid="lnk65" id="link_L4_GMN63"><path d="M136,1394.3081 C136,1395.0355 136,1395.7569 136,1396.4718 C136,1402.1905 136,1407.4863 136,1412.0057 C136,1421.0444 136,1426.9775 136,1426.9775 C136,1426.9775 702.75,1426.9775 702.75,1426.9775 C702.75,1426.9775 702.75,1392.5175 702.75,1363.1775" fill="none" id="L4-GMN63" style="stroke:#6B7280;stroke-width:1;stroke-dasharray:7,7;"/></g><!--SRC=[pLTRRnD757wVNp62Xy93YA-vL2gIRriaA49jNwgsYZRUjRFAPiVQtIH45P89AIGXrnO8IHmW9PI8IoujWTHEy7-XtlNwAN-XPsQycrtRuRb-Mitvvfpld3FpdR6fcAgC6wyVsyyshPsgCprVtzciBzsj_rsfLvxYBim_x2VlxITJrlh7awFf-axHVdUxFZDzSZI3q1VuA_h3NwjaK5JnT-O4-6DBo1XMj8AeYoFO618bCgveUPmJLKFsMR9af40qMJFvHbtEcgAML_qGISw9ewef4CsyBex8-1ibgnE3v4pyWtX5Ldp8Ryce9gM8hiaw3eTyXXkY9D7eWSM4hfFn5569Zi_t97iZVMt6xuUKxB0c6mOE-wEu79D4bsIzwI7Q6ml7EyF4x71UvzGOL60_7_GwCJkYafbaAyeVKeZtPq99X4nIm2R1WyGq2PHBeKLKYERRgYgQR4uKP4nqSuZu31gHP4CkuAW_TrtKXfkBNdklYHDGLDOaewsz1U0kvcNy2y8um32LJCSpORfwHWqmfcrjheN3uRv8Bxg5_5pSAhOxZqQXul6WYv0GxeqaWYuaqHG7HQE3X_v8B1JAd46F5Z_W9qTKsDh1ImA8HCxmqfj9Ko-1Che5TCjspfgPhx_UhPMtQkNVhFt9SrWqyBKGFfy92H4XmoAUrk5S43Sewe3iZwRYGZg8kv72tTW-M7HUJbkhsmoSLHMuQWE5hAy1lXtsp7sxL3vhrmWPL03bxeIiMXAmoW_g3xQz1CAGG0OI45eJu6YNFS0IyMHCI078SzZOF6Xi_67jFwnlbHam9m_amsvivZ3WakDTv9WYZni0kULtQJ_Si-TtQeSBl7wUryZPNkkpx-tYRS_hg7op5M4llB0MdpjxTo1n5oVUL0YFxYyHHVxwmYiEZHeLOa9FQt4upYqEmDBXT3oT38ASdMfZPOVwMtp-atQXVhmC1UXkRAm2NUTWoYulNMGUGFDqaA-1SNaGTU9z_CPQNAOEAazhXqNkBxYpe9ER4y5UBor0z-pIl3MxwQKJXLwdXBGGR-irGxlf0Aol9oCa0hssTl-njXvnXnpu-LxN3jS0oJC0xjRiK-VEiRszQMsiN7JtPqrTRJq0V9-rDGNZpOlpkUwlLgpZXt1WdFBhMkNOtM90MQYwTcJLA5QSZyiUT2pRIe9t1mXRi-iUYUZP9FYfTNOhrjrL5pyY5Wgoteg4uLoVkTTjFxfNgxnteJcuiHtEediLE1klYp7WaH7wKz6sGyask5sai7Icfoy184zStROm9BI5VrZbttbF97e0cmhgKcsiJW5LYYsziKfxrjl7rkGsX-UC066dkkHipjMg6usraiSs3ZHIcLwXZIt7kMmfh3_HbuwrfBJomggkC10f60CgoGVjzVLbU-5bjxKywxpzquEDGEE3Sav6JNn5qKm3NyWHFIlZCLatbImyXGmJwCCzkjYKUwRKNJyEAP8aQp_3UqZhkim4434Lx62982O17InHn6vJ1qiCiGvriCGfxwio37PLXiUJoLv-i6vWKLNocYpzFnZooWeg6NVdvEdKwWASJzFmbvWh8N-aek2WQW4ZvDz9ZTwaS3-yLQhqhOjSrf7x5N3FL1BOy3lWx7wmzoTHq4ZXJM6YjAlhL6sPE2BahZSnJOMXCAOyy3Hll9fhGurb0S7bZCT5pTKcWCi4zSBKWrz8T6gWC8dMa5wynKTDUsiOfY0ijTdQqRDkP-43nJAHGPwPbSWuTSNDdgjBbowxbuorR0zqjSqumZAcr-xWFa8QF7QnhkI7J4noBTE83mnhyPMzzgvH-WicL-tmrQTYYOy4FiK-5JTEZkOGVshmyLQhB3ZLrSQzEJwk_NFit-8aaZK9qwYjiQ_5K5FBfg7EvThXLds_SdAqXhgmN_BWZv4dUVIFKHSEg1oOkRvHcnVgFm00]--></g></svg>