<svg xmlns="http://www.w3.org/2000/svg" xmlns:xlink="http://www.w3.org/1999/xlink" contentStyleType="text/css" data-diagram-type="SEQUENCE" height="1349px" preserveAspectRatio="none" style="width:3142px;height:1349px;background:#FFFFFF;" version="1.1" viewBox="0 0 3142 1349" width="3142px" zoomAndPan="magnify"><defs/><g><rect fill="none" height="119.3359" style="stroke:#000000;stroke-width:1.5;" width="2556.5044" x="10" y="287.0938"/><rect fill="none" height="235.8672" style="stroke:#000000;stroke-width:1.5;" width="1104.6108" x="1209.6445" y="798.0234"/><g><title>StudentController</title><rect fill="#000000" fill-opacity="0.00000" height="1187.5234" width="8" x="85.1421" y="81.2969"/><line style="stroke:#181818;stroke-width:0.5;stroke-dasharray:5,5;" x1="89" x2="89" y1="81.2969" y2="1268.8203"/></g><g><title>StudentService</title><rect fill="#000000" fill-opacity="0.00000" height="1187.5234" width="8" x="310.1279" y="81.2969"/><line style="stroke:#181818;stroke-width:0.5;stroke-dasharray:5,5;" x1="313.7017" x2="313.7017" y1="81.2969" y2="1268.8203"/></g><g><title>StudentMapper.DB</title><rect fill="#000000" fill-opacity="0.00000" height="1187.5234" width="8" x="745.6211" y="81.2969"/><line style="stroke:#181818;stroke-width:0.5;stroke-dasharray:5,5;" x1="749.1143" x2="749.1143" y1="81.2969" y2="1268.8203"/></g><g><title>AdjustRoomController</title><rect fill="#000000" fill-opacity="0.00000" height="1187.5234" width="8" x="912.9673" y="81.2969"/><line style="stroke:#181818;stroke-width:0.5;stroke-dasharray:5,5;" x1="916.1279" x2="916.1279" y1="81.2969" y2="1268.8203"/></g><g><title>AdjustRoomService</title><rect fill="#000000" fill-opacity="0.00000" height="1187.5234" width="8" x="1085.8262" y="81.2969"/><line style="stroke:#181818;stroke-width:0.5;stroke-dasharray:5,5;" x1="1089.7026" x2="1089.7026" y1="81.2969" y2="1268.8203"/></g><g><title>AdjustRoomMapper.DB</title><rect fill="#000000" fill-opacity="0.00000" height="1187.5234" width="8" x="1303.8486" y="81.2969"/><line style="stroke:#181818;stroke-width:0.5;stroke-dasharray:5,5;" x1="1307.6445" x2="1307.6445" y1="81.2969" y2="1268.8203"/></g><g><title>DormManager</title><rect fill="#000000" fill-opacity="0.00000" height="1187.5234" width="8" x="1455.1055" y="81.2969"/><line style="stroke:#181818;stroke-width:0.5;stroke-dasharray:5,5;" x1="1459.0527" x2="1459.0527" y1="81.2969" y2="1268.8203"/></g><g><title>AdjustRoomController</title><rect fill="#000000" fill-opacity="0.00000" height="1187.5234" width="8" x="1831.21" y="81.2969"/><line style="stroke:#181818;stroke-width:0.5;stroke-dasharray:5,5;" x1="1834.3706" x2="1834.3706" y1="81.2969" y2="1268.8203"/></g><g><title>DormRoomService</title><rect fill="#000000" fill-opacity="0.00000" height="1187.5234" width="8" x="2067.52" y="81.2969"/><line style="stroke:#181818;stroke-width:0.5;stroke-dasharray:5,5;" x1="2071.0317" x2="2071.0317" y1="81.2969" y2="1268.8203"/></g><g><title>AdjustRoomService</title><rect fill="#000000" fill-opacity="0.00000" height="1187.5234" width="8" x="2225.1318" y="81.2969"/><line style="stroke:#181818;stroke-width:0.5;stroke-dasharray:5,5;" x1="2229.0083" x2="2229.0083" y1="81.2969" y2="1268.8203"/></g><g><title>DormRoomMapper.DB</title><rect fill="#000000" fill-opacity="0.00000" height="1187.5234" width="8" x="2395.8242" y="81.2969"/><line style="stroke:#181818;stroke-width:0.5;stroke-dasharray:5,5;" x1="2399.2554" x2="2399.2554" y1="81.2969" y2="1268.8203"/></g><g><title>Student</title><rect fill="#000000" fill-opacity="0.00000" height="1187.5234" width="8" x="2521.9487" y="81.2969"/><line style="stroke:#181818;stroke-width:0.5;stroke-dasharray:5,5;" x1="2525.3931" x2="2525.3931" y1="81.2969" y2="1268.8203"/></g><g><title>RepairController</title><rect fill="#000000" fill-opacity="0.00000" height="1187.5234" width="8" x="2718.9731" y="81.2969"/><line style="stroke:#181818;stroke-width:0.5;stroke-dasharray:5,5;" x1="2722.6606" x2="2722.6606" y1="81.2969" y2="1268.8203"/></g><g><title>RepairService</title><rect fill="#000000" fill-opacity="0.00000" height="1187.5234" width="8" x="2881.6313" y="81.2969"/><line style="stroke:#181818;stroke-width:0.5;stroke-dasharray:5,5;" x1="2885.0347" x2="2885.0347" y1="81.2969" y2="1268.8203"/></g><g><title>RepairMapper.DB</title><rect fill="#000000" fill-opacity="0.00000" height="1187.5234" width="8" x="3057.8164" y="81.2969"/><line style="stroke:#181818;stroke-width:0.5;stroke-dasharray:5,5;" x1="3061.1392" x2="3061.1392" y1="81.2969" y2="1268.8203"/></g><g class="participant participant-head" data-participant="Controller"><rect fill="#E2E2F0" height="30.2969" rx="2.5" ry="2.5" style="stroke:#181818;stroke-width:0.5;" width="138.2842" x="20" y="50"/><text fill="#000000" font-family="sans-serif" font-size="14" lengthAdjust="spacing" textLength="124.2842" x="27" y="69.9951">StudentController</text></g><g class="participant participant-tail" data-participant="Controller"><rect fill="#E2E2F0" height="30.2969" rx="2.5" ry="2.5" style="stroke:#181818;stroke-width:0.5;" width="138.2842" x="20" y="1267.8203"/><text fill="#000000" font-family="sans-serif" font-size="14" lengthAdjust="spacing" textLength="124.2842" x="27" y="1287.8154">StudentController</text></g><g class="participant participant-head" data-participant="Service"><rect fill="#E2E2F0" height="30.2969" rx="2.5" ry="2.5" style="stroke:#181818;stroke-width:0.5;" width="120.8525" x="253.7017" y="50"/><text fill="#000000" font-family="sans-serif" font-size="14" lengthAdjust="spacing" textLength="106.8525" x="260.7017" y="69.9951">StudentService</text></g><g class="participant participant-tail" data-participant="Service"><rect fill="#E2E2F0" height="30.2969" rx="2.5" ry="2.5" style="stroke:#181818;stroke-width:0.5;" width="120.8525" x="253.7017" y="1267.8203"/><text fill="#000000" font-family="sans-serif" font-size="14" lengthAdjust="spacing" textLength="106.8525" x="260.7017" y="1287.8154">StudentService</text></g><g class="participant participant-head" data-participant="DB"><rect fill="#E2E2F0" height="30.2969" rx="2.5" ry="2.5" style="stroke:#181818;stroke-width:0.5;" width="147.0137" x="676.1143" y="50"/><text fill="#000000" font-family="sans-serif" font-size="14" lengthAdjust="spacing" textLength="133.0137" x="683.1143" y="69.9951">StudentMapper/DB</text></g><g class="participant participant-tail" data-participant="DB"><rect fill="#E2E2F0" height="30.2969" rx="2.5" ry="2.5" style="stroke:#181818;stroke-width:0.5;" width="147.0137" x="676.1143" y="1267.8203"/><text fill="#000000" font-family="sans-serif" font-size="14" lengthAdjust="spacing" textLength="133.0137" x="683.1143" y="1287.8154">StudentMapper/DB</text></g><g class="participant participant-head" data-participant="AdjCtrl"><rect fill="#E2E2F0" height="30.2969" rx="2.5" ry="2.5" style="stroke:#181818;stroke-width:0.5;" width="167.6787" x="833.1279" y="50"/><text fill="#000000" font-family="sans-serif" font-size="14" lengthAdjust="spacing" textLength="153.6787" x="840.1279" y="69.9951">AdjustRoomController</text></g><g class="participant participant-tail" data-participant="AdjCtrl"><rect fill="#E2E2F0" height="30.2969" rx="2.5" ry="2.5" style="stroke:#181818;stroke-width:0.5;" width="167.6787" x="833.1279" y="1267.8203"/><text fill="#000000" font-family="sans-serif" font-size="14" lengthAdjust="spacing" textLength="153.6787" x="840.1279" y="1287.8154">AdjustRoomController</text></g><g class="participant participant-head" data-participant="AdjService"><rect fill="#E2E2F0" height="30.2969" rx="2.5" ry="2.5" style="stroke:#181818;stroke-width:0.5;" width="150.2471" x="1014.7026" y="50"/><text fill="#000000" font-family="sans-serif" font-size="14" lengthAdjust="spacing" textLength="136.2471" x="1021.7026" y="69.9951">AdjustRoomService</text></g><g class="participant participant-tail" data-participant="AdjService"><rect fill="#E2E2F0" height="30.2969" rx="2.5" ry="2.5" style="stroke:#181818;stroke-width:0.5;" width="150.2471" x="1014.7026" y="1267.8203"/><text fill="#000000" font-family="sans-serif" font-size="14" lengthAdjust="spacing" textLength="136.2471" x="1021.7026" y="1287.8154">AdjustRoomService</text></g><g class="participant participant-head" data-participant="AdjDB"><rect fill="#E2E2F0" height="30.2969" rx="2.5" ry="2.5" style="stroke:#181818;stroke-width:0.5;" width="176.4082" x="1219.6445" y="50"/><text fill="#000000" font-family="sans-serif" font-size="14" lengthAdjust="spacing" textLength="162.4082" x="1226.6445" y="69.9951">AdjustRoomMapper/DB</text></g><g class="participant participant-tail" data-participant="AdjDB"><rect fill="#E2E2F0" height="30.2969" rx="2.5" ry="2.5" style="stroke:#181818;stroke-width:0.5;" width="176.4082" x="1219.6445" y="1267.8203"/><text fill="#000000" font-family="sans-serif" font-size="14" lengthAdjust="spacing" textLength="162.4082" x="1226.6445" y="1287.8154">AdjustRoomMapper/DB</text></g><g class="participant participant-head" data-participant="DormManager"><text fill="#000000" font-family="sans-serif" font-size="14" lengthAdjust="spacing" textLength="100.1055" x="1406.0527" y="77.9951">DormManager</text><ellipse cx="1459.1055" cy="13.5" fill="#E2E2F0" rx="8" ry="8" style="stroke:#181818;stroke-width:0.5;"/><path d="M1459.1055,21.5 L1459.1055,48.5 M1446.1055,29.5 L1472.1055,29.5 M1459.1055,48.5 L1446.1055,63.5 M1459.1055,48.5 L1472.1055,63.5" fill="none" style="stroke:#181818;stroke-width:0.5;"/></g><g class="participant participant-tail" data-participant="DormManager"><text fill="#000000" font-family="sans-serif" font-size="14" lengthAdjust="spacing" textLength="100.1055" x="1406.0527" y="1280.8154">DormManager</text><ellipse cx="1459.1055" cy="1292.6172" fill="#E2E2F0" rx="8" ry="8" style="stroke:#181818;stroke-width:0.5;"/><path d="M1459.1055,1300.6172 L1459.1055,1327.6172 M1446.1055,1308.6172 L1472.1055,1308.6172 M1459.1055,1327.6172 L1446.1055,1342.6172 M1459.1055,1327.6172 L1472.1055,1342.6172" fill="none" style="stroke:#181818;stroke-width:0.5;"/></g><g class="participant participant-head" data-participant="AdjCtrl2"><rect fill="#E2E2F0" height="30.2969" rx="2.5" ry="2.5" style="stroke:#181818;stroke-width:0.5;" width="167.6787" x="1751.3706" y="50"/><text fill="#000000" font-family="sans-serif" font-size="14" lengthAdjust="spacing" textLength="153.6787" x="1758.3706" y="69.9951">AdjustRoomController</text></g><g class="participant participant-tail" data-participant="AdjCtrl2"><rect fill="#E2E2F0" height="30.2969" rx="2.5" ry="2.5" style="stroke:#181818;stroke-width:0.5;" width="167.6787" x="1751.3706" y="1267.8203"/><text fill="#000000" font-family="sans-serif" font-size="14" lengthAdjust="spacing" textLength="153.6787" x="1758.3706" y="1287.8154">AdjustRoomController</text></g><g class="participant participant-head" data-participant="RoomService"><rect fill="#E2E2F0" height="30.2969" rx="2.5" ry="2.5" style="stroke:#181818;stroke-width:0.5;" width="144.9766" x="1999.0317" y="50"/><text fill="#000000" font-family="sans-serif" font-size="14" lengthAdjust="spacing" textLength="130.9766" x="2006.0317" y="69.9951">DormRoomService</text></g><g class="participant participant-tail" data-participant="RoomService"><rect fill="#E2E2F0" height="30.2969" rx="2.5" ry="2.5" style="stroke:#181818;stroke-width:0.5;" width="144.9766" x="1999.0317" y="1267.8203"/><text fill="#000000" font-family="sans-serif" font-size="14" lengthAdjust="spacing" textLength="130.9766" x="2006.0317" y="1287.8154">DormRoomService</text></g><g class="participant participant-head" data-participant="AdjService2"><rect fill="#E2E2F0" height="30.2969" rx="2.5" ry="2.5" style="stroke:#181818;stroke-width:0.5;" width="150.2471" x="2154.0083" y="50"/><text fill="#000000" font-family="sans-serif" font-size="14" lengthAdjust="spacing" textLength="136.2471" x="2161.0083" y="69.9951">AdjustRoomService</text></g><g class="participant participant-tail" data-participant="AdjService2"><rect fill="#E2E2F0" height="30.2969" rx="2.5" ry="2.5" style="stroke:#181818;stroke-width:0.5;" width="150.2471" x="2154.0083" y="1267.8203"/><text fill="#000000" font-family="sans-serif" font-size="14" lengthAdjust="spacing" textLength="136.2471" x="2161.0083" y="1287.8154">AdjustRoomService</text></g><g class="participant participant-head" data-participant="RoomDB"><rect fill="#E2E2F0" height="30.2969" rx="2.5" ry="2.5" style="stroke:#181818;stroke-width:0.5;" width="171.1377" x="2314.2554" y="50"/><text fill="#000000" font-family="sans-serif" font-size="14" lengthAdjust="spacing" textLength="157.1377" x="2321.2554" y="69.9951">DormRoomMapper/DB</text></g><g class="participant participant-tail" data-participant="RoomDB"><rect fill="#E2E2F0" height="30.2969" rx="2.5" ry="2.5" style="stroke:#181818;stroke-width:0.5;" width="171.1377" x="2314.2554" y="1267.8203"/><text fill="#000000" font-family="sans-serif" font-size="14" lengthAdjust="spacing" textLength="157.1377" x="2321.2554" y="1287.8154">DormRoomMapper/DB</text></g><g class="participant participant-head" data-participant="Student"><text fill="#000000" font-family="sans-serif" font-size="14" lengthAdjust="spacing" textLength="55.1113" x="2495.3931" y="77.9951">Student</text><ellipse cx="2525.9487" cy="13.5" fill="#E2E2F0" rx="8" ry="8" style="stroke:#181818;stroke-width:0.5;"/><path d="M2525.9487,21.5 L2525.9487,48.5 M2512.9487,29.5 L2538.9487,29.5 M2525.9487,48.5 L2512.9487,63.5 M2525.9487,48.5 L2538.9487,63.5" fill="none" style="stroke:#181818;stroke-width:0.5;"/></g><g class="participant participant-tail" data-participant="Student"><text fill="#000000" font-family="sans-serif" font-size="14" lengthAdjust="spacing" textLength="55.1113" x="2495.3931" y="1280.8154">Student</text><ellipse cx="2525.9487" cy="1292.6172" fill="#E2E2F0" rx="8" ry="8" style="stroke:#181818;stroke-width:0.5;"/><path d="M2525.9487,1300.6172 L2525.9487,1327.6172 M2512.9487,1308.6172 L2538.9487,1308.6172 M2525.9487,1327.6172 L2512.9487,1342.6172 M2525.9487,1327.6172 L2538.9487,1342.6172" fill="none" style="stroke:#181818;stroke-width:0.5;"/></g><g class="participant participant-head" data-participant="RepairCtrl"><rect fill="#E2E2F0" height="30.2969" rx="2.5" ry="2.5" style="stroke:#181818;stroke-width:0.5;" width="128.625" x="2658.6606" y="50"/><text fill="#000000" font-family="sans-serif" font-size="14" lengthAdjust="spacing" textLength="114.625" x="2665.6606" y="69.9951">RepairController</text></g><g class="participant participant-tail" data-participant="RepairCtrl"><rect fill="#E2E2F0" height="30.2969" rx="2.5" ry="2.5" style="stroke:#181818;stroke-width:0.5;" width="128.625" x="2658.6606" y="1267.8203"/><text fill="#000000" font-family="sans-serif" font-size="14" lengthAdjust="spacing" textLength="114.625" x="2665.6606" y="1287.8154">RepairController</text></g><g class="participant participant-head" data-participant="RepairSvc"><rect fill="#E2E2F0" height="30.2969" rx="2.5" ry="2.5" style="stroke:#181818;stroke-width:0.5;" width="111.1934" x="2830.0347" y="50"/><text fill="#000000" font-family="sans-serif" font-size="14" lengthAdjust="spacing" textLength="97.1934" x="2837.0347" y="69.9951">RepairService</text></g><g class="participant participant-tail" data-participant="RepairSvc"><rect fill="#E2E2F0" height="30.2969" rx="2.5" ry="2.5" style="stroke:#181818;stroke-width:0.5;" width="111.1934" x="2830.0347" y="1267.8203"/><text fill="#000000" font-family="sans-serif" font-size="14" lengthAdjust="spacing" textLength="97.1934" x="2837.0347" y="1287.8154">RepairService</text></g><g class="participant participant-head" data-participant="RepairDB"><rect fill="#E2E2F0" height="30.2969" rx="2.5" ry="2.5" style="stroke:#181818;stroke-width:0.5;" width="137.3545" x="2993.1392" y="50"/><text fill="#000000" font-family="sans-serif" font-size="14" lengthAdjust="spacing" textLength="123.3545" x="3000.1392" y="69.9951">RepairMapper/DB</text></g><g class="participant participant-tail" data-participant="RepairDB"><rect fill="#E2E2F0" height="30.2969" rx="2.5" ry="2.5" style="stroke:#181818;stroke-width:0.5;" width="137.3545" x="2993.1392" y="1267.8203"/><text fill="#000000" font-family="sans-serif" font-size="14" lengthAdjust="spacing" textLength="123.3545" x="3000.1392" y="1287.8154">RepairMapper/DB</text></g><rect fill="#EEEEEE" height="3" style="stroke:#EEEEEE;stroke-width:1;" width="3135.4937" x="0" y="111.8633"/><line style="stroke:#000000;stroke-width:1;" x1="0" x2="3135.4937" y1="111.8633" y2="111.8633"/><line style="stroke:#000000;stroke-width:1;" x1="0" x2="3135.4937" y1="114.8633" y2="114.8633"/><rect fill="#EEEEEE" height="23.1328" style="stroke:#000000;stroke-width:2;" width="127.7627" x="1503.8655" y="101.2969"/><text fill="#000000" font-family="sans-serif" font-size="13" font-weight="bold" lengthAdjust="spacing" textLength="109.2368" x="1509.8655" y="117.3638">&#30331;&#24405; (UC_Login)</text><g class="message" data-participant-1="Student" data-participant-2="Controller"><polygon fill="#181818" points="100.1421,151.5625,90.1421,155.5625,100.1421,159.5625,96.1421,155.5625" style="stroke:#181818;stroke-width:1;"/><line style="stroke:#181818;stroke-width:1;" x1="94.1421" x2="2524.9487" y1="155.5625" y2="155.5625"/><text fill="#000000" font-family="sans-serif" font-size="13" lengthAdjust="spacing" textLength="250.9102" x="106.1421" y="150.4966">POST /stu/login {username,password}</text></g><g class="message" data-participant-1="Controller" data-participant-2="Service"><polygon fill="#181818" points="302.1279,180.6953,312.1279,184.6953,302.1279,188.6953,306.1279,184.6953" style="stroke:#181818;stroke-width:1;"/><line style="stroke:#181818;stroke-width:1;" x1="89.1421" x2="308.1279" y1="184.6953" y2="184.6953"/><text fill="#000000" font-family="sans-serif" font-size="13" lengthAdjust="spacing" textLength="200.9858" x="96.1421" y="179.6294">stuLogin(username, password)</text></g><g class="message" data-participant-1="Service" data-participant-2="DB"><polygon fill="#181818" points="737.6211,209.8281,747.6211,213.8281,737.6211,217.8281,741.6211,213.8281" style="stroke:#181818;stroke-width:1;"/><line style="stroke:#181818;stroke-width:1;" x1="314.1279" x2="743.6211" y1="213.8281" y2="213.8281"/><text fill="#000000" font-family="sans-serif" font-size="13" lengthAdjust="spacing" textLength="411.4932" x="321.1279" y="208.7622">SELECT * FROM student WHERE username=? AND password=?</text></g><g class="message" data-participant-1="DB" data-participant-2="Service"><polygon fill="#181818" points="325.1279,238.9609,315.1279,242.9609,325.1279,246.9609,321.1279,242.9609" style="stroke:#181818;stroke-width:1;"/><line style="stroke:#181818;stroke-width:1;stroke-dasharray:2,2;" x1="319.1279" x2="748.6211" y1="242.9609" y2="242.9609"/><text fill="#000000" font-family="sans-serif" font-size="13" lengthAdjust="spacing" textLength="133.6943" x="331.1279" y="237.895">Student record / null</text></g><g class="message" data-participant-1="Service" data-participant-2="Controller"><polygon fill="#181818" points="100.1421,268.0938,90.1421,272.0938,100.1421,276.0938,96.1421,272.0938" style="stroke:#181818;stroke-width:1;"/><line style="stroke:#181818;stroke-width:1;stroke-dasharray:2,2;" x1="94.1421" x2="313.1279" y1="272.0938" y2="272.0938"/><text fill="#000000" font-family="sans-serif" font-size="13" lengthAdjust="spacing" textLength="87.5215" x="106.1421" y="267.0278">Student / null</text></g><path d="M10,287.0938 L74.4429,287.0938 L74.4429,294.2266 L64.4429,304.2266 L10,304.2266 L10,287.0938" fill="#EEEEEE" style="stroke:#000000;stroke-width:1.5;"/><rect fill="none" height="119.3359" style="stroke:#000000;stroke-width:1.5;" width="2556.5044" x="10" y="287.0938"/><text fill="#000000" font-family="sans-serif" font-size="13" font-weight="bold" lengthAdjust="spacing" textLength="19.4429" x="25" y="300.1606">alt</text><text fill="#000000" font-family="sans-serif" font-size="11" font-weight="bold" lengthAdjust="spacing" textLength="58.0293" x="89.4429" y="299.3042">[success]</text><g class="message" data-participant-1="Controller" data-participant-2="Student"><polygon fill="#181818" points="2513.9487,321.3594,2523.9487,325.3594,2513.9487,329.3594,2517.9487,325.3594" style="stroke:#181818;stroke-width:1;"/><line style="stroke:#181818;stroke-width:1;" x1="89.1421" x2="2519.9487" y1="325.3594" y2="325.3594"/><text fill="#000000" font-family="sans-serif" font-size="13" lengthAdjust="spacing" textLength="205.1182" x="96.1421" y="320.2935">set session (Identity=stu, User)</text></g><g class="message" data-participant-1="Controller" data-participant-2="Student"><polygon fill="#181818" points="2513.9487,350.4922,2523.9487,354.4922,2513.9487,358.4922,2517.9487,354.4922" style="stroke:#181818;stroke-width:1;"/><line style="stroke:#181818;stroke-width:1;stroke-dasharray:2,2;" x1="89.1421" x2="2519.9487" y1="354.4922" y2="354.4922"/><text fill="#000000" font-family="sans-serif" font-size="13" lengthAdjust="spacing" textLength="123.6143" x="96.1421" y="349.4263">&#36820;&#22238; success (user)</text></g><line style="stroke:#000000;stroke-width:1;stroke-dasharray:2,2;" x1="10" x2="2566.5044" y1="363.4922" y2="363.4922"/><text fill="#000000" font-family="sans-serif" font-size="11" font-weight="bold" lengthAdjust="spacing" textLength="29.8042" x="15" y="373.7026">[fail]</text><g class="message" data-participant-1="Controller" data-participant-2="Student"><polygon fill="#181818" points="2513.9487,394.4297,2523.9487,398.4297,2513.9487,402.4297,2517.9487,398.4297" style="stroke:#181818;stroke-width:1;"/><line style="stroke:#181818;stroke-width:1;stroke-dasharray:2,2;" x1="89.1421" x2="2519.9487" y1="398.4297" y2="398.4297"/><text fill="#000000" font-family="sans-serif" font-size="13" lengthAdjust="spacing" textLength="180.3942" x="96.1421" y="393.3638">&#36820;&#22238; error (&#29992;&#25143;&#21517;&#25110;&#23494;&#30721;&#38169;&#35823;)</text></g><rect fill="#EEEEEE" height="3" style="stroke:#EEEEEE;stroke-width:1;" width="3135.4937" x="0" y="433.9961"/><line style="stroke:#000000;stroke-width:1;" x1="0" x2="3135.4937" y1="433.9961" y2="433.9961"/><line style="stroke:#000000;stroke-width:1;" x1="0" x2="3135.4937" y1="436.9961" y2="436.9961"/><rect fill="#EEEEEE" height="23.1328" style="stroke:#000000;stroke-width:2;" width="202.1636" x="1466.665" y="423.4297"/><text fill="#000000" font-family="sans-serif" font-size="13" font-weight="bold" lengthAdjust="spacing" textLength="183.6378" x="1472.665" y="439.4966">&#30003;&#35831;&#35843;&#23487; (UC_ApplyAdjust)</text><g class="message" data-participant-1="Student" data-participant-2="AdjCtrl"><polygon fill="#181818" points="927.9673,473.6953,917.9673,477.6953,927.9673,481.6953,923.9673,477.6953" style="stroke:#181818;stroke-width:1;"/><line style="stroke:#181818;stroke-width:1;" x1="921.9673" x2="2524.9487" y1="477.6953" y2="477.6953"/><text fill="#000000" font-family="sans-serif" font-size="13" lengthAdjust="spacing" textLength="248.314" x="933.9673" y="472.6294">POST /adjustRoom/add {AdjustRoom}</text></g><g class="message" data-participant-1="AdjCtrl" data-participant-2="AdjService"><polygon fill="#181818" points="1077.8262,502.8281,1087.8262,506.8281,1077.8262,510.8281,1081.8262,506.8281" style="stroke:#181818;stroke-width:1;"/><line style="stroke:#181818;stroke-width:1;" x1="916.9673" x2="1083.8262" y1="506.8281" y2="506.8281"/><text fill="#000000" font-family="sans-serif" font-size="13" lengthAdjust="spacing" textLength="148.8589" x="923.9673" y="501.7622">addApply(adjustRoom)</text></g><g class="message" data-participant-1="AdjService" data-participant-2="AdjDB"><polygon fill="#181818" points="1295.8486,531.9609,1305.8486,535.9609,1295.8486,539.9609,1299.8486,535.9609" style="stroke:#181818;stroke-width:1;"/><line style="stroke:#181818;stroke-width:1;" x1="1089.8262" x2="1301.8486" y1="535.9609" y2="535.9609"/><text fill="#000000" font-family="sans-serif" font-size="13" lengthAdjust="spacing" textLength="194.0225" x="1096.8262" y="530.895">INSERT INTO adjust_room (...)</text></g><g class="message" data-participant-1="AdjDB" data-participant-2="AdjService"><polygon fill="#181818" points="1100.8262,561.0938,1090.8262,565.0938,1100.8262,569.0938,1096.8262,565.0938" style="stroke:#181818;stroke-width:1;"/><line style="stroke:#181818;stroke-width:1;stroke-dasharray:2,2;" x1="1094.8262" x2="1306.8486" y1="565.0938" y2="565.0938"/><text fill="#000000" font-family="sans-serif" font-size="13" lengthAdjust="spacing" textLength="78.2603" x="1106.8262" y="560.0278">insert result</text></g><g class="message" data-participant-1="AdjService" data-participant-2="AdjCtrl"><polygon fill="#181818" points="927.9673,590.2266,917.9673,594.2266,927.9673,598.2266,923.9673,594.2266" style="stroke:#181818;stroke-width:1;"/><line style="stroke:#181818;stroke-width:1;stroke-dasharray:2,2;" x1="921.9673" x2="1088.8262" y1="594.2266" y2="594.2266"/><text fill="#000000" font-family="sans-serif" font-size="13" lengthAdjust="spacing" textLength="37.064" x="933.9673" y="589.1606">result</text></g><g class="message" data-participant-1="AdjCtrl" data-participant-2="Student"><polygon fill="#181818" points="2513.9487,619.3594,2523.9487,623.3594,2513.9487,627.3594,2517.9487,623.3594" style="stroke:#181818;stroke-width:1;"/><line style="stroke:#181818;stroke-width:1;stroke-dasharray:2,2;" x1="916.9673" x2="2519.9487" y1="623.3594" y2="623.3594"/><text fill="#000000" font-family="sans-serif" font-size="13" lengthAdjust="spacing" textLength="117.3492" x="923.9673" y="618.2935">&#36820;&#22238; success/error</text></g><rect fill="#EEEEEE" height="3" style="stroke:#EEEEEE;stroke-width:1;" width="3135.4937" x="0" y="651.9258"/><line style="stroke:#000000;stroke-width:1;" x1="0" x2="3135.4937" y1="651.9258" y2="651.9258"/><line style="stroke:#000000;stroke-width:1;" x1="0" x2="3135.4937" y1="654.9258" y2="654.9258"/><rect fill="#EEEEEE" height="23.1328" style="stroke:#000000;stroke-width:2;" width="247.8668" x="1443.8134" y="641.3594"/><text fill="#000000" font-family="sans-serif" font-size="13" font-weight="bold" lengthAdjust="spacing" textLength="229.3409" x="1449.8134" y="657.4263">&#23487;&#31649;&#23457;&#25209;&#35843;&#23487; (UC_ApproveAdjust)</text><g class="message" data-participant-1="DormManager" data-participant-2="AdjCtrl2"><polygon fill="#181818" points="1823.21,691.625,1833.21,695.625,1823.21,699.625,1827.21,695.625" style="stroke:#181818;stroke-width:1;"/><line style="stroke:#181818;stroke-width:1;" x1="1459.1055" x2="1829.21" y1="695.625" y2="695.625"/><text fill="#000000" font-family="sans-serif" font-size="13" lengthAdjust="spacing" textLength="352.1045" x="1466.1055" y="690.5591">PUT /adjustRoom/update/{state=true} {AdjustRoom}</text></g><g class="message" data-participant-1="AdjCtrl2" data-participant-2="RoomService"><polygon fill="#181818" points="2059.52,720.7578,2069.52,724.7578,2059.52,728.7578,2063.52,724.7578" style="stroke:#181818;stroke-width:1;"/><line style="stroke:#181818;stroke-width:1;" x1="1835.21" x2="2065.52" y1="724.7578" y2="724.7578"/><text fill="#000000" font-family="sans-serif" font-size="13" lengthAdjust="spacing" textLength="212.3101" x="1842.21" y="719.6919">adjustRoomUpdate(adjustRoom)</text></g><g class="message" data-participant-1="RoomService" data-participant-2="RoomDB"><polygon fill="#181818" points="2387.8242,749.8906,2397.8242,753.8906,2387.8242,757.8906,2391.8242,753.8906" style="stroke:#181818;stroke-width:1;"/><line style="stroke:#181818;stroke-width:1;" x1="2071.52" x2="2393.8242" y1="753.8906" y2="753.8906"/><text fill="#000000" font-family="sans-serif" font-size="13" lengthAdjust="spacing" textLength="285.9111" x="2078.52" y="748.8247">UPDATE dorm_room set bed fields, capacity</text></g><g class="message" data-participant-1="RoomDB" data-participant-2="RoomService"><polygon fill="#181818" points="2082.52,779.0234,2072.52,783.0234,2082.52,787.0234,2078.52,783.0234" style="stroke:#181818;stroke-width:1;"/><line style="stroke:#181818;stroke-width:1;stroke-dasharray:2,2;" x1="2076.52" x2="2398.8242" y1="783.0234" y2="783.0234"/><text fill="#000000" font-family="sans-serif" font-size="13" lengthAdjust="spacing" textLength="87.001" x="2088.52" y="777.9575">update result</text></g><path d="M1209.6445,798.0234 L1274.0874,798.0234 L1274.0874,805.1563 L1264.0874,815.1563 L1209.6445,815.1563 L1209.6445,798.0234" fill="#EEEEEE" style="stroke:#000000;stroke-width:1.5;"/><rect fill="none" height="235.8672" style="stroke:#000000;stroke-width:1.5;" width="1104.6108" x="1209.6445" y="798.0234"/><text fill="#000000" font-family="sans-serif" font-size="13" font-weight="bold" lengthAdjust="spacing" textLength="19.4429" x="1224.6445" y="811.0903">alt</text><text fill="#000000" font-family="sans-serif" font-size="11" font-weight="bold" lengthAdjust="spacing" textLength="105.5796" x="1289.0874" y="810.2339">[update success]</text><g class="message" data-participant-1="AdjCtrl2" data-participant-2="AdjService2"><polygon fill="#181818" points="2217.1318,832.2891,2227.1318,836.2891,2217.1318,840.2891,2221.1318,836.2891" style="stroke:#181818;stroke-width:1;"/><line style="stroke:#181818;stroke-width:1;" x1="1835.21" x2="2223.1318" y1="836.2891" y2="836.2891"/><text fill="#000000" font-family="sans-serif" font-size="13" lengthAdjust="spacing" textLength="170.1934" x="1842.21" y="831.2231">updateApply(adjustRoom)</text></g><g class="message" data-participant-1="AdjService2" data-participant-2="AdjDB"><polygon fill="#181818" points="1318.8486,861.4219,1308.8486,865.4219,1318.8486,869.4219,1314.8486,865.4219" style="stroke:#181818;stroke-width:1;"/><line style="stroke:#181818;stroke-width:1;" x1="1312.8486" x2="2228.1318" y1="865.4219" y2="865.4219"/><text fill="#000000" font-family="sans-serif" font-size="13" lengthAdjust="spacing" textLength="277.1514" x="1324.8486" y="860.356">UPDATE adjust_room set state, finish_time</text></g><g class="message" data-participant-1="AdjDB" data-participant-2="AdjService2"><polygon fill="#181818" points="2217.1318,890.5547,2227.1318,894.5547,2217.1318,898.5547,2221.1318,894.5547" style="stroke:#181818;stroke-width:1;"/><line style="stroke:#181818;stroke-width:1;stroke-dasharray:2,2;" x1="1307.8486" x2="2223.1318" y1="894.5547" y2="894.5547"/><text fill="#000000" font-family="sans-serif" font-size="13" lengthAdjust="spacing" textLength="87.001" x="1314.8486" y="889.4888">update result</text></g><g class="message" data-participant-1="AdjService2" data-participant-2="AdjCtrl2"><polygon fill="#181818" points="1846.21,919.6875,1836.21,923.6875,1846.21,927.6875,1842.21,923.6875" style="stroke:#181818;stroke-width:1;"/><line style="stroke:#181818;stroke-width:1;stroke-dasharray:2,2;" x1="1840.21" x2="2228.1318" y1="923.6875" y2="923.6875"/><text fill="#000000" font-family="sans-serif" font-size="13" lengthAdjust="spacing" textLength="37.064" x="1852.21" y="918.6216">result</text></g><g class="message" data-participant-1="AdjCtrl2" data-participant-2="DormManager"><polygon fill="#181818" points="1470.1055,948.8203,1460.1055,952.8203,1470.1055,956.8203,1466.1055,952.8203" style="stroke:#181818;stroke-width:1;"/><line style="stroke:#181818;stroke-width:1;stroke-dasharray:2,2;" x1="1464.1055" x2="1834.21" y1="952.8203" y2="952.8203"/><text fill="#000000" font-family="sans-serif" font-size="13" lengthAdjust="spacing" textLength="80.9834" x="1476.1055" y="947.7544">&#36820;&#22238; success</text></g><line style="stroke:#000000;stroke-width:1;stroke-dasharray:2,2;" x1="1209.6445" x2="2314.2554" y1="961.8203" y2="961.8203"/><text fill="#000000" font-family="sans-serif" font-size="11" font-weight="bold" lengthAdjust="spacing" textLength="77.3545" x="1214.6445" y="972.0308">[update fail]</text><g class="message" data-participant-1="RoomService" data-participant-2="AdjCtrl2"><polygon fill="#181818" points="1846.21,992.7578,1836.21,996.7578,1846.21,1000.7578,1842.21,996.7578" style="stroke:#181818;stroke-width:1;"/><line style="stroke:#181818;stroke-width:1;stroke-dasharray:2,2;" x1="1840.21" x2="2070.52" y1="996.7578" y2="996.7578"/><text fill="#000000" font-family="sans-serif" font-size="13" lengthAdjust="spacing" textLength="31.9858" x="1852.21" y="991.6919">error</text></g><g class="message" data-participant-1="AdjCtrl2" data-participant-2="DormManager"><polygon fill="#181818" points="1470.1055,1021.8906,1460.1055,1025.8906,1470.1055,1029.8906,1466.1055,1025.8906" style="stroke:#181818;stroke-width:1;"/><line style="stroke:#181818;stroke-width:1;stroke-dasharray:2,2;" x1="1464.1055" x2="1834.21" y1="1025.8906" y2="1025.8906"/><text fill="#000000" font-family="sans-serif" font-size="13" lengthAdjust="spacing" textLength="62.1182" x="1476.1055" y="1020.8247">&#36820;&#22238; error</text></g><rect fill="#EEEEEE" height="3" style="stroke:#EEEEEE;stroke-width:1;" width="3135.4937" x="0" y="1061.457"/><line style="stroke:#000000;stroke-width:1;" x1="0" x2="3135.4937" y1="1061.457" y2="1061.457"/><line style="stroke:#000000;stroke-width:1;" x1="0" x2="3135.4937" y1="1064.457" y2="1064.457"/><rect fill="#EEEEEE" height="23.1328" style="stroke:#000000;stroke-width:2;" width="213.4434" x="1461.0251" y="1050.8906"/><text fill="#000000" font-family="sans-serif" font-size="13" font-weight="bold" lengthAdjust="spacing" textLength="194.9175" x="1467.0251" y="1066.9575">&#25552;&#20132;&#25253;&#20462; (UC_SubmitRepair)</text><g class="message" data-participant-1="Student" data-participant-2="RepairCtrl"><polygon fill="#181818" points="2710.9731,1101.1563,2720.9731,1105.1563,2710.9731,1109.1563,2714.9731,1105.1563" style="stroke:#181818;stroke-width:1;"/><line style="stroke:#181818;stroke-width:1;" x1="2525.9487" x2="2716.9731" y1="1105.1563" y2="1105.1563"/><text fill="#000000" font-family="sans-serif" font-size="13" lengthAdjust="spacing" textLength="173.0244" x="2532.9487" y="1100.0903">POST /repair/add {Repair}</text></g><g class="message" data-participant-1="RepairCtrl" data-participant-2="RepairSvc"><polygon fill="#181818" points="2873.6313,1130.2891,2883.6313,1134.2891,2873.6313,1138.2891,2877.6313,1134.2891" style="stroke:#181818;stroke-width:1;"/><line style="stroke:#181818;stroke-width:1;" x1="2722.9731" x2="2879.6313" y1="1134.2891" y2="1134.2891"/><text fill="#000000" font-family="sans-serif" font-size="13" lengthAdjust="spacing" textLength="138.6582" x="2729.9731" y="1129.2231">addNewOrder(repair)</text></g><g class="message" data-participant-1="RepairSvc" data-participant-2="RepairDB"><polygon fill="#181818" points="3049.8164,1159.4219,3059.8164,1163.4219,3049.8164,1167.4219,3053.8164,1163.4219" style="stroke:#181818;stroke-width:1;"/><line style="stroke:#181818;stroke-width:1;" x1="2885.6313" x2="3055.8164" y1="1163.4219" y2="1163.4219"/><text fill="#000000" font-family="sans-serif" font-size="13" lengthAdjust="spacing" textLength="152.1851" x="2892.6313" y="1158.356">INSERT INTO repair (...)</text></g><g class="message" data-participant-1="RepairDB" data-participant-2="RepairSvc"><polygon fill="#181818" points="2896.6313,1188.5547,2886.6313,1192.5547,2896.6313,1196.5547,2892.6313,1192.5547" style="stroke:#181818;stroke-width:1;"/><line style="stroke:#181818;stroke-width:1;stroke-dasharray:2,2;" x1="2890.6313" x2="3060.8164" y1="1192.5547" y2="1192.5547"/><text fill="#000000" font-family="sans-serif" font-size="13" lengthAdjust="spacing" textLength="78.2603" x="2902.6313" y="1187.4888">insert result</text></g><g class="message" data-participant-1="RepairSvc" data-participant-2="RepairCtrl"><polygon fill="#181818" points="2733.9731,1217.6875,2723.9731,1221.6875,2733.9731,1225.6875,2729.9731,1221.6875" style="stroke:#181818;stroke-width:1;"/><line style="stroke:#181818;stroke-width:1;stroke-dasharray:2,2;" x1="2727.9731" x2="2884.6313" y1="1221.6875" y2="1221.6875"/><text fill="#000000" font-family="sans-serif" font-size="13" lengthAdjust="spacing" textLength="37.064" x="2739.9731" y="1216.6216">result</text></g><g class="message" data-participant-1="RepairCtrl" data-participant-2="Student"><polygon fill="#181818" points="2536.9487,1246.8203,2526.9487,1250.8203,2536.9487,1254.8203,2532.9487,1250.8203" style="stroke:#181818;stroke-width:1;"/><line style="stroke:#181818;stroke-width:1;stroke-dasharray:2,2;" x1="2530.9487" x2="2721.9731" y1="1250.8203" y2="1250.8203"/><text fill="#000000" font-family="sans-serif" font-size="13" lengthAdjust="spacing" textLength="117.3492" x="2542.9487" y="1245.7544">&#36820;&#22238; success/error</text></g><!--SRC=[bLHDQnD16BxlhtZfnKJI1d8Ch2LVOg5jIZxmMAQxqxgwsLrdPbjAoK44gOBOGnIA81OKF2M2Xw8Y_JFDX__2sPdPxEmcfJMNpRxpFE_7liyyzw2DduVOip3O3ZeWg4TXtoVm31z3I35OY69g6AO9q_FVup_l8TUjxMxw1uwN1zCqaCKukCr26tlC211XZkK4o6Emee8rtsF4TrrCLW1HI5wNejkO73eM5b3rVobk2mK19iLwLI3hLSDG1x3wGAjHXfrckmD5oiAY6pKD9tmeug4UBWI8qYEVs7qZmKTiLROCd2G6pSqf47FoXa95X7gr3Et6PgFMWVlmiDNSYfYYbyUF6gq6n7Hp7IhRzNaESzseLs5LhnZFGB350L04BtJTf5Hcj1YjOCXbG4FBmfGQm7-PgIIOJuKvZ6CStuFSHXHpsB79Eov0bpUQN-3gvDdLOFpnKrm6n9V96zZbGjb7ZdiNBYQ4AoOt7NoRd5wEpzvEJZ-CHw-cdr_y7PpFHYEUpREbtWO_PgFBsVUNu-6LK5qb2DpZYlqqfEmsxKbKo_Tx6VdnWneZxareNNuykbI12JejGXxFw50LYqM8vaJ-ruQJ957VK535cWk2uyJKkOIRDnA0WaS2tDXkDreT_kWqGO9t2KT3RcrjJL2KrlJiZiVN5wcDXYvBfTMRJuvbXpVheIXsAvR7TpOTNeo75vFNFzCh9FuXNbXYtIVyQthe86iBjosob8P7UR9xrDx_R-qtv4vlFOf4QzScq5PVuhllfbSV1ZPYk7X26N-OZ8IulrGAfIYDrbmPaYHTaICb2WqP4oDPT7VgbKu3RDwTr4Dq_VUm3ViETcrQuFuU88ixW24POhsfghBVM0MHoQY8xZLwpze7ZDcB6bQa6AW9MNMiQrXOLlIv2hnjpw5FTfdJmt6E1M6Niaql54ijA0rIOqIsdcmqAtJfUAh8tFXIAqYLaFVYJXKaDFR0oRkpwrzV9c- -NbyDnGLgXtizXxLmW1nocmbALERUgE221yfuwjx8oA6r39Yv12AMSR-aKco0H4Ia-SdJlf6W4WwlAQnl6nyrYOr9JXBpnlmumMQzJqALxSKGgUeaTzhujAoPjbE0kxdVFm00]--></g></svg>