<svg xmlns="http://www.w3.org/2000/svg" xmlns:xlink="http://www.w3.org/1999/xlink" contentStyleType="text/css" data-diagram-type="DESCRIPTION" height="652px" preserveAspectRatio="none" style="width:382px;height:652px;background:#FFFFFF;" version="1.1" viewBox="0 0 382 652" width="382px" zoomAndPan="magnify"><defs/><g><!--entity Student--><g class="entity" data-entity="Student" data-source-line="2" data-uid="ent0002" id="entity_Student"><ellipse cx="56.0557" cy="439.87" fill="#F1F1F1" rx="8" ry="8" style="stroke:#181818;stroke-width:0.5;"/><path d="M56.0557,447.87 L56.0557,474.87 M43.0557,455.87 L69.0557,455.87 M56.0557,474.87 L43.0557,489.87 M56.0557,474.87 L69.0557,489.87" fill="none" style="stroke:#181818;stroke-width:0.5;"/><text fill="#000000" font-family="sans-serif" font-size="14" lengthAdjust="spacing" textLength="55.1113" x="28.5" y="504.3651">Student</text></g><!--entity DormManager--><g class="entity" data-entity="DormManager" data-source-line="3" data-uid="ent0003" id="entity_DormManager"><ellipse cx="56.0527" cy="52.87" fill="#F1F1F1" rx="8" ry="8" style="stroke:#181818;stroke-width:0.5;"/><path d="M56.0527,60.87 L56.0527,87.87 M43.0527,68.87 L69.0527,68.87 M56.0527,87.87 L43.0527,102.87 M56.0527,87.87 L69.0527,102.87" fill="none" style="stroke:#181818;stroke-width:0.5;"/><text fill="#000000" font-family="sans-serif" font-size="14" lengthAdjust="spacing" textLength="100.1055" x="6" y="117.3651">DormManager</text></g><!--entity Admin--><g class="entity" data-entity="Admin" data-source-line="4" data-uid="ent0004" id="entity_Admin"><ellipse cx="56.0521" cy="305.87" fill="#F1F1F1" rx="8" ry="8" style="stroke:#181818;stroke-width:0.5;"/><path d="M56.0521,313.87 L56.0521,340.87 M43.0521,321.87 L69.0521,321.87 M56.0521,340.87 L43.0521,355.87 M56.0521,340.87 L69.0521,355.87" fill="none" style="stroke:#181818;stroke-width:0.5;"/><text fill="#000000" font-family="sans-serif" font-size="14" lengthAdjust="spacing" textLength="44.8643" x="33.62" y="370.3651">Admin</text></g><!--entity System--><g class="entity" data-entity="System" data-source-line="5" data-uid="ent0005" id="entity_System"><ellipse cx="56.0517" cy="194.87" fill="#F1F1F1" rx="8" ry="8" style="stroke:#181818;stroke-width:0.5;"/><path d="M56.0517,202.87 L56.0517,229.87 M43.0517,210.87 L69.0517,210.87 M56.0517,229.87 L43.0517,244.87 M56.0517,229.87 L69.0517,244.87" fill="none" style="stroke:#181818;stroke-width:0.5;"/><text fill="#000000" font-family="sans-serif" font-size="14" lengthAdjust="spacing" textLength="94.9235" x="8.59" y="259.3651">&#31995;&#32479;(&#33258;&#21160;&#20219;&#21153;)</text></g><!--entity UC_Login--><g class="entity" data-entity="UC_Login" data-source-line="7" data-uid="ent0006" id="entity_UC_Login"><ellipse cx="313.3289" cy="373.5236" fill="#F1F1F1" rx="22.7989" ry="14.5236" style="stroke:#181818;stroke-width:0.5;"/><text fill="#000000" font-family="sans-serif" font-size="14" lengthAdjust="spacing" textLength="27.9999" x="299.329" y="378.1721">&#30331;&#24405;</text></g><!--entity UC_ViewMyRoom--><g class="entity" data-entity="UC_ViewMyRoom" data-source-line="8" data-uid="ent0007" id="entity_UC_ViewMyRoom"><ellipse cx="313.3342" cy="437.5228" fill="#F1F1F1" rx="61.5142" ry="14.7028" style="stroke:#181818;stroke-width:0.5;"/><text fill="#000000" font-family="sans-serif" font-size="14" lengthAdjust="spacing" textLength="83.9996" x="271.3344" y="442.1713">&#26597;&#30475;&#25105;&#30340;&#23487;&#33293;</text></g><!--entity UC_ApplyAdjust--><g class="entity" data-entity="UC_ApplyAdjust" data-source-line="9" data-uid="ent0008" id="entity_UC_ApplyAdjust"><ellipse cx="313.3294" cy="502.5159" fill="#F1F1F1" rx="63.2294" ry="15.0459" style="stroke:#181818;stroke-width:0.5;"/><text fill="#000000" font-family="sans-serif" font-size="14" lengthAdjust="spacing" textLength="88.7164" x="268.9712" y="507.1643">&#30003;&#35831;&#35843;&#23487;/&#25442;&#23487;</text></g><!--entity UC_ApproveAdjust--><g class="entity" data-entity="UC_ApproveAdjust" data-source-line="10" data-uid="ent0009" id="entity_UC_ApproveAdjust"><ellipse cx="313.3278" cy="20.5236" fill="#F1F1F1" rx="42.5978" ry="14.5236" style="stroke:#181818;stroke-width:0.5;"/><text fill="#000000" font-family="sans-serif" font-size="14" lengthAdjust="spacing" textLength="55.9998" x="285.3279" y="25.1721">&#23457;&#25209;&#35843;&#23487;</text></g><!--entity UC_SubmitRepair--><g class="entity" data-entity="UC_SubmitRepair" data-source-line="11" data-uid="ent0010" id="entity_UC_SubmitRepair"><ellipse cx="313.3278" cy="567.5236" fill="#F1F1F1" rx="42.5978" ry="14.5236" style="stroke:#181818;stroke-width:0.5;"/><text fill="#000000" font-family="sans-serif" font-size="14" lengthAdjust="spacing" textLength="55.9998" x="285.3279" y="572.1721">&#25552;&#20132;&#25253;&#20462;</text></g><!--entity UC_ViewNotice--><g class="entity" data-entity="UC_ViewNotice" data-source-line="12" data-uid="ent0011" id="entity_UC_ViewNotice"><ellipse cx="313.3278" cy="224.5236" fill="#F1F1F1" rx="42.5978" ry="14.5236" style="stroke:#181818;stroke-width:0.5;"/><text fill="#000000" font-family="sans-serif" font-size="14" lengthAdjust="spacing" textLength="55.9998" x="285.3279" y="229.1721">&#26597;&#30475;&#20844;&#21578;</text></g><!--entity UC_ManageNotice--><g class="entity" data-entity="UC_ManageNotice" data-source-line="13" data-uid="ent0012" id="entity_UC_ManageNotice"><ellipse cx="313.3278" cy="309.5236" fill="#F1F1F1" rx="42.5978" ry="14.5236" style="stroke:#181818;stroke-width:0.5;"/><text fill="#000000" font-family="sans-serif" font-size="14" lengthAdjust="spacing" textLength="55.9998" x="285.3279" y="314.1721">&#31649;&#29702;&#20844;&#21578;</text></g><!--entity UC_RegisterVisitor--><g class="entity" data-entity="UC_RegisterVisitor" data-source-line="14" data-uid="ent0013" id="entity_UC_RegisterVisitor"><ellipse cx="313.3278" cy="631.5236" fill="#F1F1F1" rx="42.5978" ry="14.5236" style="stroke:#181818;stroke-width:0.5;"/><text fill="#000000" font-family="sans-serif" font-size="14" lengthAdjust="spacing" textLength="55.9998" x="285.3279" y="636.1721">&#35775;&#23458;&#30331;&#35760;</text></g><!--entity UC_ManageStudents--><g class="entity" data-entity="UC_ManageStudents" data-source-line="15" data-uid="ent0014" id="entity_UC_ManageStudents"><ellipse cx="313.3278" cy="113.5236" fill="#F1F1F1" rx="42.5978" ry="14.5236" style="stroke:#181818;stroke-width:0.5;"/><text fill="#000000" font-family="sans-serif" font-size="14" lengthAdjust="spacing" textLength="55.9998" x="285.3279" y="118.1721">&#23398;&#29983;&#31649;&#29702;</text></g><!--link Student to UC_Login--><g class="link" data-entity-1="Student" data-entity-2="UC_Login" data-source-line="17" data-uid="lnk15" id="link_Student_UC_Login"><path d="M83.93,454.07 C98.97,445.82 118.23,435.87 136.11,428.52 C190.79,406.01 252.3823,388.8867 285.7623,380.2267" fill="none" id="Student-to-UC_Login" style="stroke:#181818;stroke-width:1;"/><polygon fill="#181818" points="291.57,378.72,281.8539,377.1083,286.7302,379.9756,283.8629,384.8519,291.57,378.72" style="stroke:#181818;stroke-width:1;"/></g><!--link Student to UC_ViewMyRoom--><g class="link" data-entity-1="Student" data-entity-2="UC_ViewMyRoom" data-source-line="18" data-uid="lnk16" id="link_Student_UC_ViewMyRoom"><path d="M83.89,466.15 C125.11,460.99 198.8865,451.7356 252.3865,445.0356" fill="none" id="Student-to-UC_ViewMyRoom" style="stroke:#181818;stroke-width:1;"/><polygon fill="#181818" points="258.34,444.29,248.9127,441.4394,253.3788,444.9113,249.9068,449.3774,258.34,444.29" style="stroke:#181818;stroke-width:1;"/></g><!--link Student to UC_ApplyAdjust--><g class="link" data-entity-1="Student" data-entity-2="UC_ApplyAdjust" data-source-line="19" data-uid="lnk17" id="link_Student_UC_ApplyAdjust"><path d="M83.89,472.99 C124.73,478.26 197.4095,487.661 250.8795,494.571" fill="none" id="Student-to-UC_ApplyAdjust" style="stroke:#181818;stroke-width:1;"/><polygon fill="#181818" points="256.83,495.34,248.4169,490.2195,251.8712,494.6992,247.3916,498.1535,256.83,495.34" style="stroke:#181818;stroke-width:1;"/></g><!--link Student to UC_SubmitRepair--><g class="link" data-entity-1="Student" data-entity-2="UC_SubmitRepair" data-source-line="20" data-uid="lnk18" id="link_Student_UC_SubmitRepair"><path d="M83.89,479.82 C132.41,498.44 228.6686,535.3997 278.3186,554.4597" fill="none" id="Student-to-UC_SubmitRepair" style="stroke:#181818;stroke-width:1;"/><polygon fill="#181818" points="283.92,556.61,276.9514,549.6502,279.2521,554.8181,274.0843,557.1188,283.92,556.61" style="stroke:#181818;stroke-width:1;"/></g><!--link Student to UC_ViewNotice--><g class="link" data-entity-1="Student" data-entity-2="UC_ViewNotice" data-source-line="21" data-uid="lnk19" id="link_Student_UC_ViewNotice"><path d="M83.81,441.4 C120.42,403.28 188.6,333.54 250.11,277.52 C265.21,263.76 278.3944,252.5436 291.0844,242.0036" fill="none" id="Student-to-UC_ViewNotice" style="stroke:#181818;stroke-width:1;"/><polygon fill="#181818" points="295.7,238.17,286.2209,240.8433,291.8537,241.3647,291.3324,246.9974,295.7,238.17" style="stroke:#181818;stroke-width:1;"/></g><!--link Student to UC_RegisterVisitor--><g class="link" data-entity-1="Student" data-entity-2="UC_RegisterVisitor" data-source-line="22" data-uid="lnk20" id="link_Student_UC_RegisterVisitor"><path d="M83.97,495.73 C98.7,509.36 117.67,525.78 136.11,538.52 C183.39,571.17 199.22,572.82 250.11,599.52 C262.69,606.12 271.4295,610.6352 283.0095,616.5652" fill="none" id="Student-to-UC_RegisterVisitor" style="stroke:#181818;stroke-width:1;"/><polygon fill="#181818" points="288.35,619.3,282.1625,611.6375,283.8996,617.021,278.5161,618.7581,288.35,619.3" style="stroke:#181818;stroke-width:1;"/></g><!--link DormManager to UC_Login--><g class="link" data-entity-1="DormManager" data-entity-2="UC_Login" data-source-line="24" data-uid="lnk21" id="link_DormManager_UC_Login"><path d="M90.3,120.86 C103.67,134.97 119.78,150.44 136.11,162.52 C169.99,187.58 194.48,173.05 220.11,206.52 C257.47,255.32 212.55,292.86 250.11,341.52 C260.5,354.98 272.4558,361.3399 286.3058,366.0999" fill="none" id="DormManager-to-UC_Login" style="stroke:#181818;stroke-width:1;"/><polygon fill="#181818" points="291.98,368.05,284.7687,361.342,287.2515,366.4249,282.1686,368.9076,291.98,368.05" style="stroke:#181818;stroke-width:1;"/></g><!--link DormManager to UC_ApproveAdjust--><g class="link" data-entity-1="DormManager" data-entity-2="UC_ApproveAdjust" data-source-line="25" data-uid="lnk22" id="link_DormManager_UC_ApproveAdjust"><path d="M106.5,64.5 C116.24,61.27 126.44,58.11 136.11,55.52 C183.1,42.88 232.3439,33.6497 268.2639,27.5797" fill="none" id="DormManager-to-UC_ApproveAdjust" style="stroke:#181818;stroke-width:1;"/><polygon fill="#181818" points="274.18,26.58,264.6393,24.1355,269.2499,27.4131,265.9723,32.0237,274.18,26.58" style="stroke:#181818;stroke-width:1;"/></g><!--link DormManager to UC_ViewNotice--><g class="link" data-entity-1="DormManager" data-entity-2="UC_ViewNotice" data-source-line="26" data-uid="lnk23" id="link_DormManager_UC_ViewNotice"><path d="M106.41,102.68 C139.38,116.84 183.29,137.01 220.11,158.52 C247.82,174.7 272.9044,193.3329 290.9144,207.4229" fill="none" id="DormManager-to-UC_ViewNotice" style="stroke:#181818;stroke-width:1;"/><polygon fill="#181818" points="295.64,211.12,291.0163,202.424,291.702,208.0391,286.0868,208.7248,295.64,211.12" style="stroke:#181818;stroke-width:1;"/></g><!--link DormManager to UC_ManageStudents--><g class="link" data-entity-1="DormManager" data-entity-2="UC_ManageStudents" data-source-line="27" data-uid="lnk24" id="link_DormManager_UC_ManageStudents"><path d="M106.25,78.9 C138.78,77.47 182.24,77.39 220.11,83.52 C242.71,87.17 261.7252,93.2684 279.8352,100.1884" fill="none" id="DormManager-to-UC_ManageStudents" style="stroke:#181818;stroke-width:1;"/><polygon fill="#181818" points="285.44,102.33,278.4606,95.381,280.7694,100.5453,275.6051,102.8541,285.44,102.33" style="stroke:#181818;stroke-width:1;"/></g><!--link Admin to UC_Login--><g class="link" data-entity-1="Admin" data-entity-2="UC_Login" data-source-line="29" data-uid="lnk25" id="link_Admin_UC_Login"><path d="M78.82,338.76 C127.05,345.94 236.5154,362.2266 284.6854,369.3966" fill="none" id="Admin-to-UC_Login" style="stroke:#181818;stroke-width:1;"/><polygon fill="#181818" points="290.62,370.28,282.307,364.9986,285.6745,369.5439,281.1292,372.9114,290.62,370.28" style="stroke:#181818;stroke-width:1;"/></g><!--link Admin to UC_ManageNotice--><g class="link" data-entity-1="Admin" data-entity-2="UC_ManageNotice" data-source-line="30" data-uid="lnk26" id="link_Admin_UC_ManageNotice"><path d="M78.82,333.3 C121.62,328.94 211.3609,319.7982 266.0309,314.2282" fill="none" id="Admin-to-UC_ManageNotice" style="stroke:#181818;stroke-width:1;"/><polygon fill="#181818" points="272,313.62,262.6409,310.5528,267.0258,314.1268,263.4518,318.5116,272,313.62" style="stroke:#181818;stroke-width:1;"/></g><!--link Admin to UC_ManageStudents--><g class="link" data-entity-1="Admin" data-entity-2="UC_ManageStudents" data-source-line="31" data-uid="lnk27" id="link_Admin_UC_ManageStudents"><path d="M78.9,314.8 C88.22,305.07 98.65,292.91 106.11,280.52 C125.89,247.62 110.34,227.98 136.11,199.52 C174.49,157.12 232.6241,134.9895 272.0241,123.6495" fill="none" id="Admin-to-UC_ManageStudents" style="stroke:#181818;stroke-width:1;"/><polygon fill="#181818" points="277.79,121.99,268.0347,120.6353,272.9851,123.3729,270.2475,128.3233,277.79,121.99" style="stroke:#181818;stroke-width:1;"/></g><!--link System to UC_ViewNotice--><g class="link" data-entity-1="System" data-entity-2="UC_ViewNotice" data-source-line="33" data-uid="lnk28" id="link_System_UC_ViewNotice"><path d="M103.88,224.52 C151.52,224.52 218.69,224.52 264.46,224.52" fill="none" id="System-to-UC_ViewNotice" style="stroke:#181818;stroke-width:1;"/><polygon fill="#181818" points="270.46,224.52,261.46,220.52,265.46,224.52,261.46,228.52,270.46,224.52" style="stroke:#181818;stroke-width:1;"/><text fill="#000000" font-family="sans-serif" font-size="13" lengthAdjust="spacing" textLength="82.38" x="137.11" y="220.5869">&#23450;&#26102;/&#39318;&#39029;&#21047;&#26032;</text></g><!--SRC=[RPDFIyCm6CRl_HHX9pqCxnw4eKVdOSDTfRQnHjPcjAcoi_zcPRZ1d3Y4qU66YDR1qA55zcMMjliMTgPiQTTJIPvVdhplywPbU4G0mK17oZ41CjAXH13M154YM0T5OifG8z5g1-jgNjH41UhHJavMqOAj6WIgG3H0nX-vljjT2wvVgVKoTLrgsUiPGJ0DA8a61FlR1xjOGHfZ7rtwUv_XnHA2P_bg0MFcvdNx_jEjLslwdGlgJ89QFKRdAfLoDIUVc0PXXgrHy34EXkSXk-7LU-4doUlu578dg6DxDz_iH0mjceSg8WLO4P7EIhbhJ7-UFQi_dJWh9UzXWYJ8bKmltsZJYd4iFexq7TjlNAMG1QYWC52zX0mqZtSE1yw4EhqmiS0PfjX6qp9OK-y3lzLbzc7saGQosQr5_idDPUv9XSiuAV4PfHcoNfDAeZj1uDvMlCOK8JR1D82xDqMDXoK8_uyuVcbiYvzPch9qYdw1bIh09g1EntlusfWDsZFxazR6Ndlu1m00]--></g></svg>